<svg width="48" height="48" viewBox="0 0 48 48" fill="none" xmlns="http://www.w3.org/2000/svg">
<g clip-path="url(#clip0_9_24)">
<path d="M37.8323 14.2182C35.4018 13.7264 31.4829 13.0613 30.3881 15.3492C27.042 21.1448 25.1209 27.2106 23.675 29.8132C23.8268 29.9009 30.4916 33.7677 30.963 33.9964C32.4613 34.7235 34.9628 34.3964 36.0285 32.4744C38.9847 27.1426 38.2333 28.5307 41.3743 23.0904C43.4041 19.5747 40.8663 14.832 37.8323 14.2182Z" fill="#EA4335"/>
<path d="M16.804 37.7469C15.172 35.8799 13.9748 32.1446 15.4089 30.0527C19.5981 22.7965 22.9517 18.4039 25.5891 14.0009C26.9876 14.8084 32.5913 17.987 32.9644 18.3145C34.2164 19.4127 35.2536 21.5113 34.1219 23.3951C30.9826 28.6212 29.6945 30.9863 26.5037 36.5131C24.4734 40.0298 18.8428 40.0794 16.804 37.7469Z" fill="#FDBD00"/>
<path d="M31.8302 10.5191C28.5654 8.6113 26.8873 8.86133 25.1316 9.1429C23.5355 9.5419 21.3772 10.7019 20.4674 12.1921C18.1723 15.9512 15.9985 19.671 13.1823 24.7119C12.315 26.2644 12.9588 28.1719 13.7592 28.9288C14.3017 29.4421 18.2931 31.6442 19.0296 31.9609C20.0714 32.4087 21.6319 32.0971 22.5732 31.1283C22.8331 30.8606 28.7876 20.633 30.4645 17.6165C31.1723 16.3435 31.8098 15.639 32.8683 14.96C34.9131 13.887 36.5095 13.7486 38.9549 14.6428C38.9549 14.6428 33.6328 11.5579 31.8302 10.5191Z" fill="#2DA94F"/>
<path d="M10.824 34.5215C7.53932 32.648 6.91677 31.0698 6.28274 29.4084C5.83031 27.8267 5.75574 25.3776 6.59141 23.8443C8.69958 19.9774 8.68443 19.9578 11.6419 14.9984C12.5527 13.471 14.5266 13.0749 15.5825 13.3895C16.2981 13.6027 20.2009 15.9583 20.8433 16.4378C21.7522 17.1161 22.2625 18.6233 21.8941 19.9231C21.7923 20.2819 18.0615 26.8295 16.2877 29.7902C15.539 31.0396 15.2478 31.9439 15.189 33.2C15.2821 35.5073 15.9604 36.9591 17.9575 38.6299C17.9575 38.6299 12.6249 35.5631 10.824 34.5215Z" fill="#297AEC"/>
</g>
<defs>
<clipPath id="clip0_9_24">
<rect width="38" height="31.9504" fill="white" transform="translate(5 8)"/>
</clipPath>
</defs>
</svg>
