<svg width="48" height="48" viewBox="0 0 48 48" fill="none" xmlns="http://www.w3.org/2000/svg">
<g clip-path="url(#clip0_9_10)">
<path d="M24 48C37.2548 48 48 37.2548 48 24C48 10.7452 37.2548 0 24 0C10.7452 0 0 10.7452 0 24C0 37.2548 10.7452 48 24 48Z" fill="#5F259F"/>
<path d="M33.0774 18.7805C33.0774 17.9987 32.4069 17.3282 31.625 17.3282H28.9437L22.7987 10.2894C22.2401 9.61893 21.3464 9.39563 20.4526 9.61893L18.3298 10.2894C17.9946 10.4013 17.8826 10.8479 18.1065 11.0712L24.8101 17.4402H14.6416C14.3064 17.4402 14.0831 17.6635 14.0831 17.9987V19.1158C14.0831 19.8976 14.7535 20.5681 15.5354 20.5681H17.0996V25.9313C17.0996 29.9536 19.2224 32.3002 22.7981 32.3002C23.9152 32.3002 24.8095 32.1883 25.9266 31.7417V35.3174C25.9266 36.3231 26.7084 37.1049 27.7141 37.1049H29.2784C29.6136 37.1049 29.9489 36.7697 29.9489 36.4345V20.4567H32.5188C32.8541 20.4567 33.0774 20.2334 33.0774 19.8982V18.7805ZM25.9266 28.3893C25.2561 28.7246 24.3623 28.8365 23.6919 28.8365C21.9043 28.8365 21.0105 27.9427 21.0105 25.9313V20.5681H25.9266V28.3893Z" fill="white"/>
</g>
<defs>
<clipPath id="clip0_9_10">
<rect width="48" height="48" rx="24" fill="white"/>
</clipPath>
</defs>
</svg>
