<svg xmlns="http://www.w3.org/2000/svg" viewBox="0 0 2692.49 475.79"><defs><style>.cls-1{fill:#40d6e9;}.cls-2{fill:#645ffd;}.cls-3{fill:#020202;}.cls-4{fill:#030303;}</style></defs><g id="Layer_2" data-name="Layer 2"><g id="Layer_1-2" data-name="Layer 1"><path class="cls-1" d="M190.61,164.5a10.93,10.93,0,0,0,6.28-5.44c6.88-13.6,16.35-25.51,24.66-38.17C239.61,93.37,258,66,276.23,38.64c7-10.55,14.12-21.06,21.14-31.63,1.56-2.36,3.19-4.61,5.79-5.92a8.21,8.21,0,0,1,10.77,3.17c1.74,2.94,2.13,6.17,2.13,9.56q-.07,69.8,0,139.6c0,13.71.83,14.8,14.58,14.88,35.65.19,71.3.14,107,.19l7,0c4.38,0,9.35-.23,11.41,4.3s.67,9.31-2.16,13.52Q430.6,220.9,407.46,255.5q-20.07,30.08-40,60.24Q321.89,384.37,276.25,453c-4.48,6.71-8.54,13.78-14.24,19.63-1.7,1.75-3.63,4.19-6.35,2.77s-6-3.21-6.29-7.07c-.16-2-.16-4-.16-6q0-74.3.11-148.58c0-1.16-.09-2.32-.14-3.48.06-6.48.14-13,.16-19.44,0-10.23-1.8-12.07-12.21-12.45-1.16,0-2.33,0-3.5,0q-48.23,0-96.47,0c-4.13,0-8-.26-10.44-4.29-2.59-4.36-.36-7.94,2-11.46,17.08-25.7,34.31-51.31,51.2-77.14C184.19,178.93,190.1,173,190.61,164.5Z"/><path class="cls-2" d="M190.61,164.5c-.51,8.53-6.42,14.43-10.71,21-16.89,25.83-34.12,51.44-51.2,77.14-2.34,3.52-4.57,7.1-2,11.46,2.39,4,6.31,4.3,10.44,4.29q48.24,0,96.47,0c1.17,0,2.34,0,3.5,0,10.41.38,12.23,2.22,12.21,12.45,0,6.48-.1,13-.16,19.44-3.67.73-5.35,3.72-7.17,6.45q-50.2,75.38-100.36,150.79c-.83,1.25-1.7,2.46-2.59,3.66-2.18,2.94-5,4.3-8.7,3.44a8.09,8.09,0,0,1-6.58-7.24,36.92,36.92,0,0,1-.24-5.47q0-83.78,0-167.55c0-14-1-15-15-15-28.16,0-56.32-.09-84.48.07-5.85,0-11.61-.66-17.39-1.14-5.45-.45-8.19-5.89-5.87-11.12C4.21,259.53,9.39,253,14,246.07Q82.85,142.3,151.8,38.56c6.62-10,13.21-19.91,20-29.76A34.06,34.06,0,0,1,178,1.73C182.43-1.89,188.48.46,189.51,6a48.92,48.92,0,0,1,.86,8.87q.07,71.55,0,143.12C190.42,160.18,190.54,162.34,190.61,164.5Z"/><path class="cls-3" d="M667.59,302.21c8.87,27.51,31.9,41.06,60.94,40.49,22.09-.44,39.82-8.73,52-27.58a80.1,80.1,0,0,0,3.91-7.74c4.78-7,6.06-15,6.46-23.17.06-.65.12-1.3.17-1.95,1.49-4.85,1-9.85,1.05-14.78q.1-93.87.11-187.74l48.19-.26c1.38,1.78.7,3.85.7,5.77,0,58.51-.19,117,.13,175.52.16,28.72-3.59,56.32-18.63,81.46a.6.6,0,0,0-.41.67,2.46,2.46,0,0,0-1.64,2.31.54.54,0,0,0-.4.62,2.58,2.58,0,0,0-1.59,2.38.54.54,0,0,0-.4.62,8.91,8.91,0,0,0-3.65,4.36l-2.3,2.71a38,38,0,0,0-7.08,7.09l-8.74,7.2a2.73,2.73,0,0,0-2.29,1.76c-6.36,3.86-12.55,8-19.68,10.42L760.32,387l-2.89.5-2.09.59-1.93.3a1.93,1.93,0,0,0-2.08.63l-3.91.42a9.3,9.3,0,0,0-5.08.66l-8.92.36-11.19,0-9.91-.42a9.28,9.28,0,0,0-5.07-.67l-2.93-.29-2.1-.51-2.89-.58a2,2,0,0,0-2.08-.63l-1.93-.31-2.08-.6c-15.45-4.66-29.81-11.33-41.72-22.51a8.83,8.83,0,0,0-4.13-4l-3-2.92a2.79,2.79,0,0,0-1.93-2.2l-3.15-3.75a2.61,2.61,0,0,0-1.87-2.2l-1.29-1.75a2.55,2.55,0,0,0-1.65-2.34.56.56,0,0,0-.41-.64,2.61,2.61,0,0,0-1.6-2.34.58.58,0,0,0-.41-.65,2.73,2.73,0,0,0-1.58-2.34.56.56,0,0,0-.34-.67,163.13,163.13,0,0,1-14.07-36.91l-.62-2.91a1.67,1.67,0,0,0-.37-2.08c-.18-1.3-.37-2.6-.55-3.91a6.9,6.9,0,0,0-.56-5l-.48-3.93a39.87,39.87,0,0,0-.5-12q.06-55.56.12-111.11c0-25.25.12-50.5-.1-75.75,0-4.29,1.28-5.18,5.3-5.1q19.73.38,39.46,0c4-.07,4.92,1.06,4.91,4.95q-.18,90.45-.08,180.9c0,2,.14,4,.22,6a29.76,29.76,0,0,0,.8,13c.05.66.1,1.31.16,2A39.1,39.1,0,0,0,667.59,302.21Z"/><path class="cls-4" d="M1050.33,100.71l4.84,4.11a41.3,41.3,0,0,0,8,8.07l8.17,10.78a2.64,2.64,0,0,0,1.62,2.49l1.51,2.47q2.13,5,4.25,10c4.48,10.51,5.69,21.69,6.77,32.9l0,3.08a107.69,107.69,0,0,1-12,43.92L1072,221a2.74,2.74,0,0,0-1.64,2.51l-5.19,6.72a2.7,2.7,0,0,0-1.85,2.24c-5.88,5.33-11.29,11.33-17.75,15.83a90.42,90.42,0,0,1-32.3,14.1,142.33,142.33,0,0,1-32,3.23c-16-.12-31.94.07-47.9.14-3,.78-1.58,3.25-1.58,4.86-.1,36-.07,72.05-.1,108.08,0,1.81-.23,3.61-.36,5.42l-48.19,0c-.91-1.55-.49-3.25-.49-4.87q0-147.21,0-294.4c0-1.78-.52-3.66.56-5.34l115.06.27a3.72,3.72,0,0,0,3.09.53l4.9.5a2,2,0,0,0,2.1.52c14.65,2.65,27.72,8.84,39.67,17.55A2.85,2.85,0,0,0,1050.33,100.71ZM932,172.39c0,13.8.1,27.6-.07,41.39,0,3.1.85,3.94,3.91,3.91,13.83-.15,27.66,0,41.49-.1,7.14-.05,14.29.41,21.42-1,20.94-4.08,37.77-24.86,36.28-45.09-1.78-24.22-20.17-43.32-42.89-43.84-18.82-.44-37.66-.09-56.48-.29-3.35,0-3.73,1.31-3.71,4.11C932.07,145.13,932,158.76,932,172.39Z"/><path class="cls-4" d="M1534.19,204.46c1-1.28,2.11-2.55,3.16-3.82a8.9,8.9,0,0,0,4-4.07c9.21-9.56,19.5-17.75,31.84-22.82a90.43,90.43,0,0,1,23-6.45l3-.7,4.88-.75a3.81,3.81,0,0,0,3.13-.22l22,0a1.88,1.88,0,0,0,2.12.24,143.63,143.63,0,0,1,23,4.71,84.82,84.82,0,0,1,46,33.87A2.69,2.69,0,0,0,1702,207l1.42,2.48a3,3,0,0,0,1.25,2.69l2,4.24a136.36,136.36,0,0,1,6.82,35l.15,3.95c-.14,2-.39,3.93-.39,5.89q-.06,61.4-.08,122.78l-46.85.1-.41-3.1c.07-.65.15-1.29.23-1.94a6.8,6.8,0,0,0,.72-5.05c.08-.65.16-1.29.25-1.94,1.46-4.28,1.6-8.73,2-13.42a3.79,3.79,0,0,0-2.92,3.33h0a2.59,2.59,0,0,0-1.81,2.18l-3.15,3.78a10.66,10.66,0,0,0-4.08,4.08c-8.56,8.62-19.29,13.23-30.7,16.6l-2.1.52-2.9.5-2.1.5-6.91.4h-12.19l-5.91-.46a3.62,3.62,0,0,0-3.09-.55l-2.92-.39-2.1-.49-8.9-2.49a2.11,2.11,0,0,0-2.06-.76l-1.62-.49a4.8,4.8,0,0,0-3.38-1.51C1558.4,379.88,1550,371.67,1542,363l-2.69-2.88a2.79,2.79,0,0,0-1.82-2.3.55.55,0,0,0-.41-.63,5.36,5.36,0,0,0-2.44-3.56.37.37,0,0,0-.33-.49c-3.52-7.65-7.08-15.26-8.49-23.7-2.54-15.24-.61-29.94,5-44.24.25-.49.49-1,.73-1.47a7.54,7.54,0,0,0,2.5-4.47l2.45-3.58a2.78,2.78,0,0,0,1.71-2.38c13.65-17,32-25.27,53-28.92a160.71,160.71,0,0,1,26.73-2.14c15.45-.1,30.54,1.69,45,7.42.5.76,1.31,1.24,2,.74,1.17-.81.77-1.94.14-3l-.28-1.94c-.37-5-1.55-9.69-5.46-13.25-9.88-13.2-22.62-20.43-39.57-20.94-14.69-.45-26.4,5.13-36.73,14.68-3.11,2.87-6.34,5.93-8.39,9.54-2.45,4.31-5,3.35-8,1.5-11.7-7.27-23.3-14.7-35-21.91-3.07-1.88-4.31-3.57-1.16-6.36.7-.62,1.31-1.35,2-2A2.66,2.66,0,0,0,1534.19,204.46Zm90.62,79.9c-15-.07-25.1,2.48-35.13,9-9,5.88-15,13.84-14.22,25.14.79,11.07,7.7,18,17.21,22.65,8.86,4.35,18.17,4.76,27.76,3.12,19.9-3.4,40.37-22.48,44.3-41.41,1.56-7.53,1.18-8.48-5.86-11.9C1647.65,285.54,1635.54,284.72,1624.81,284.36Z"/><path class="cls-4" d="M1930.35,229.42c.16,1,.33,1.93.49,2.9a4.45,4.45,0,0,0,.48,4.09c.15,1.63.29,3.27.43,4.9a22.38,22.38,0,0,0-.27,2.45q.13,67.47.29,134.94c0,1.8-.28,3.6-.43,5.4-14.81,0-29.62-.14-44.43.14-4,.08-4.51-1.38-4.5-4.84q.16-60.51,0-121c0-3-.31-5.95-.48-8.92a6.22,6.22,0,0,0-.68-5.06l-.33-1.92a16.76,16.76,0,0,0-3.09-9.72c-4.21-10.69-13-15.6-23.35-18.8-12.27-3.8-24.51-4-35.64,2.68-15.5,9.32-24.17,23.7-25.74,41.56-1.78,20.21-.51,40.53-.66,60.79s-.12,40.55.06,60.82c0,3.51-.92,4.46-4.41,4.41-13.66-.2-27.32-.16-41,0-3,0-4.28-.42-4.28-3.95q.18-102.19,0-204.4c0-3.27.85-4.25,4.16-4.21,13.33.18,26.66.23,40,0,3.46-.07,3.93,1.29,3.49,4a1.28,1.28,0,0,0-.26,1.95c-1.73,4.18-1.13,8.67-1.79,13a4.73,4.73,0,0,0-.35,4.47,4.78,4.78,0,0,0,2.43-3.32c7.18-8.54,15.62-15.48,26-19.69,7.25-2.93,14.94-4.38,22.56-6.05l3.12-.37h19a2,2,0,0,0,2.12.34c12.68,1.91,24.59,5.71,35.61,12.6,11.81,7.39,19.4,17.93,25,30.23.55,1.2,1.08,2.42,1.62,3.62a23.47,23.47,0,0,0,2.69,8.06l.48,1.89a1.64,1.64,0,0,0,.56,2.09l.3,1.93A2.68,2.68,0,0,0,1930.35,229.42Z"/><path class="cls-4" d="M2023.38,337.52c18.4.07,36.81.18,55.21.21,16.59,0,33.18,0,49.76-.05,1.21,1.63.74,3.53.75,5.31,0,10.46.1,20.92,0,31.38,0,3.26.81,6.61-.61,9.79l-172.2-.1c-.09-12.9-.15-25.81-.3-38.71,0-1.6.83-2.8,1.29-4.19q32.58-38.31,65.18-76.62,18-21.14,36-42.22c.8-.94,2.38-1.78,1.69-3.26s-2.38-.72-3.59-.72q-48.48-.09-97-.08c-.6-15.5-.53-31,0-46.49q82.14,0,164.29-.12c3,0,4,.8,4,3.89-.16,11.29-.21,22.59,0,33.88.11,6-4.93,8.61-8,12.26-17.25,20.69-34.84,41.1-52.47,61.48-8,9.19-15.67,18.59-23.53,27.85-6.85,8.08-13.93,16-20.61,24.2-1,.38-1.8,1-1.48,2.11C2022,338,2022.77,338,2023.38,337.52Z"/><path class="cls-3" d="M1267.29,127.63l-78.75-.08c-1.75-4.84-.79-9.86-.75-14.77.07-11.08-.75-22.19.46-33.26l211.1,0c.84.78.68,1.81.68,2.78q0,20.78,0,41.57a5.1,5.1,0,0,1-1,3.72l-78.79.08c-3.56.6-1.82,3.41-1.82,5.08q-.15,122.67-.09,245.33c0,2-.1,4-.15,6l-47.94.17c-1.6-1.89-.8-4.14-.8-6.2q-.07-122.6,0-245.2c0-1.33.08-2.66,0-4S1268.46,127.19,1267.29,127.63Z"/><path class="cls-3" d="M1112.24,79.47c14.66,0,29.32.18,44,0,3.8-.06,4.67,1,4.67,4.72q-.17,147.81,0,295.6c0,4.05-1.41,4.48-4.82,4.45-14.65-.16-29.31-.06-44,0-1.18-1.66-.6-3.55-.61-5.32q0-147.06,0-294.11C1111.5,83,1110.84,81.06,1112.24,79.47Z"/><path class="cls-4" d="M1443.4,172.26c0,.45,0,.9,0,1.34a58.58,58.58,0,0,0-1.76,15l-.24,1.93a11.14,11.14,0,0,0-.66,6.12,12.66,12.66,0,0,0,3.54-5.13c19.66-23.9,51.71-30.89,79.63-21,9.23,3.26,9,1.09,5.6,11.78-3.76,12-7.7,23.88-11.19,35.92-.9,3.1-1.53,3.2-4.51,2.31-11.43-3.43-23.13-5.54-34.94-2-8.58,2.55-15.28,7.83-20.88,14.88-4.47,5.62-8.41,11.35-10.32,18.32a17,17,0,0,0-2,9.74l-.19,1.94c-1,2.56-.56,5.24-.56,7.86q-.06,53.75-.05,107.49c0,1.79.42,3.65-.45,5.38H1396.2c-.86-1.56-.47-3.25-.47-4.88q0-101.11,0-202.22c0-1.8-.34-3.67.74-5.33l45.75-.05Z"/><path d="M2686.23,382.15l2.06-.76C2688,382.68,2687.43,383.28,2686.23,382.15Z"/><path d="M2679.22,384.1a2.1,2.1,0,0,1,2.09-.62C2681,384.81,2680.32,385.24,2679.22,384.1Z"/><path d="M2669.22,386.05a1.9,1.9,0,0,1,2.11-.43C2670.86,386.91,2670.19,387.21,2669.22,386.05Z"/><path d="M2327.6,249.32c-1.11-14.66-4.41-28.73-11.17-41.88a.59.59,0,0,1-.34-.68,1.71,1.71,0,0,0-1.64-2.31,34.57,34.57,0,0,0-5.37-7.65c.14-1.42-.44-2.21-1.92-2.23-6-5.56-11.85-11.22-19.06-15.39-13.28-7.68-27.64-11.63-42.74-13.33-.6-1.13-1.3-1.3-2.12-.22l-21,0a6.61,6.61,0,0,1-4.12.29c-1.13.24-2.24.53-3.38.7-11.14,1.65-21.87,4.47-32.06,9.53a97.38,97.38,0,0,0-22.25,15.52,9.51,9.51,0,0,1-4.06,4.1l-7.16,7.74a2.63,2.63,0,0,1-1.79,2.31l-2.15,2.72c-.23,1.1-.54,2.13-2,2.13-1.34,3.11,1.56,3.67,3.12,4.66,10.9,6.94,22.06,13.51,32.83,20.66,7,4.65,6.66,3.37,10.59-1.84a54.17,54.17,0,0,1,4.44-4.66,2.58,2.58,0,0,1,1.95-2.05c22.35-25.44,65.28-19.51,79.09,7.83,3.67,3.92,4.23,8.95,4.47,13.87.14,2.81-1.65,1.4-2.8.46-14.62-5.8-29.89-7.49-45.47-7.32-29.84.34-57.61,6-78.27,30.09a3,3,0,0,1-1.79,2.34.52.52,0,0,1-.41.59C2140.32,291.74,2137,309.7,2140,329c1.68,10.7,6.43,20.11,12,29.19a.57.57,0,0,1,.45.6,5,5,0,0,1,2.73,3.36l8.05,8a2.74,2.74,0,0,1,2.27,1.82c4.53,5.11,11.08,7,16.67,10.44a4.8,4.8,0,0,1,3.35,1.51l10.64,3.57,2.07.7,1.92.34a2,2,0,0,1,2.09.55l2.92.37a6.56,6.56,0,0,1,4.08.67l4.91.38,12.19,0,6.92-.38c.95,1.07,1.62.78,2.1-.43l2.9-.56c1,1.06,1.63.75,2.1-.45,10.11-2.81,19.75-6.58,27.72-13.7,2.85-.43,4.43-2.21,5.18-4.85l1-1a2.81,2.81,0,0,0,2.83-3.24,5.23,5.23,0,0,0-1.76,1.32,5.23,5.23,0,0,1,1.76-1.32l2.26-2.71c.67-1.91,1.87-3.46,4.24-5.81-1.21,8.94-1.8,16.87-3.66,24.65,0,2.67,2,2.1,3.53,2.1q21.86,0,43.72-.07c.08-12.1.22-24.2.22-36.3q0-47,0-94a20.15,20.15,0,0,1,.3-2.43C2327.67,250.63,2327.63,250,2327.6,249.32Zm-48.17,51.56c-3.06,19.34-24,39.89-44.72,43.4-9.58,1.63-18.91,1.24-27.78-3.11-9.7-4.75-16.68-11.81-17.28-23.12-.59-11.07,5.42-18.82,14.23-24.68,10.2-6.79,21.63-9.13,35.57-9,11,.42,23.7,1.34,35.45,7.47C2278.83,293.88,2280.15,296.28,2279.43,300.88Z"/><path d="M2691.56,374.25c-3.43-8.68-6.31-17.56-9.51-26.33-1.55-4.24-1.65-10.1-5.26-12.18-3.3-1.91-7.63,2.25-11.57,3.55-12.64,4.16-24-2.68-26.26-15.68a73.88,73.88,0,0,1-1-12.41c0-29.59.07-59.18-.11-88.78,0-3.74,1.31-4.23,4.56-4.19,13.5.17,27,0,40.49.15,3.37,0,4.2-1,4.15-4.24-.16-12.8-.18-25.6,0-38.4.05-3.4-1.1-4.14-4.28-4.1-13.5.16-27-.06-40.5.15-3.47.06-4.46-.81-4.42-4.35.2-17.46,0-34.92.17-52.37,0-3.38-.69-4.55-4.32-4.49q-20.49.33-41,0c-3.57,0-4.41,1-4.38,4.48.17,17.29-.06,34.58.19,51.87.05,4.06-1.2,5-5,4.86-8.65-.27-17.33,0-26-.15-3.18-.07-4.35.72-4.3,4.12q.28,19.2,0,38.4c0,3.29.92,4.28,4.21,4.21,9.16-.2,18.33,0,27.5-.11,2.37,0,3.57.37,3.56,3.21q-.24,51.38-.25,102.73a16.86,16.86,0,0,1,.6,8.07c.13,1.3.27,2.6.41,3.9-1.35,1-1,1.65.4,2.12l.56,2.88c-1.33,1.13-.77,1.72.6,2.08,6,22.72,20.73,36.48,43.29,42.28.39,1.34,1,1.68,2.09.57l2.91.43c.77,1.74,1.83,1.76,3.1.53l20,0c1.32,1.25,2.37,1.15,3.09-.62l3.91-.41a1.9,1.9,0,0,1,2.11-.43l7.89-1.52a2.1,2.1,0,0,1,2.09-.62l4.92-1.33,2.06-.76C2693.14,380.71,2693.12,378.23,2691.56,374.25Z"/><path d="M2548.17,323.24c-13-5.43-26.05-10.79-39-16.36-3.08-1.33-4.8-1.34-6.31,2.17-3,6.91-7.49,12.88-12.51,18.5-16.34,18.27-47.64,21.85-68.13,8.47-37.24-24.3-35.66-83.39-9.55-108.71,22.48-21.78,61.67-21.1,79.78,5.76-.25,1.36.18,2.24,1.66,2.39a.45.45,0,0,1,.35.58,2.54,2.54,0,0,1,1.59,2.43.52.52,0,0,1,.37.63c3.48,3.08,3.93,8,6.79,11.41a7.87,7.87,0,0,0,2.42-.31c13.19-6.48,27-11.56,40.63-16.9,1.59-.62,1.88-1.43,1.07-3.35a116.29,116.29,0,0,0-26.81-39.36A92.23,92.23,0,0,0,2497.79,175c-9.8-4.91-20.53-7.54-31.45-9.1-.57-1.2-1.26-1.39-2.12-.26a187.47,187.47,0,0,0-31,1c-.93-1.09-1.62-.87-2.12.39a111.22,111.22,0,0,0-26.19,7.85c-12.06,5.56-22.19,13.94-31.43,23.54-9.55,9.93-17.08,20.95-21.64,33.95a15.28,15.28,0,0,0-3.82,11l-.48,1.9c-1.2.45-1.71,1.07-.5,2.09-.1.64-.21,1.28-.32,1.92-1.63.68-1.93,1.69-.74,3.06l-.34,1.92c-1.91,1.09-1.85,2.49-.63,4.07-.1,1-.19,2-.28,2.92-1.95,1.08-1.89,2.48-.65,4.07l-.43,10.89c-1.83,1.07-1.82,2.14,0,3.21.15,3.63.29,7.26.44,10.89-1.25,1.58-1.3,3,.63,4.07l.38,3.91a3.4,3.4,0,0,1,.72,2.25,3.4,3.4,0,0,0-.72-2.25c-1.32,1.31-1.06,2.32.58,3.08.11.64.23,1.28.34,1.92-1.24,1.38-.9,2.37.75,3.05.11.64.21,1.28.32,1.92-1.25,1.07-.67,1.66.54,2.09.47,1.63.95,3.27,1.42,4.91a8.8,8.8,0,0,0,2.79,8h0c.65,1.82,1.19,3.69,2,5.45,7.93,17.7,20.6,31.54,35.75,43.29a72.21,72.21,0,0,0,27.58,13.34c.29,1.28.83,1.91,2.05.8l9.93,2.34c.36,1.32,1,1.69,2.08.61l2.93.33c1.07,2.08,2.51,1.78,4.08.61l8.91.41,15.19,0,4.9-.47c1.33,1.27,2.39,1.22,3.08-.63l2.92-.33c1,1.12,1.64.84,2.11-.43l2.9-.52c1,1.08,1.67.75,2.1-.51,2.68-.86,5.4-1.61,8-2.6,11.33-4.25,22.16-9.28,31.17-17.72,8.59-8.05,16.28-16.72,22-27.06,2.61-1.39,3.4-3.75,3.47-6.49l.69-1.46a3.94,3.94,0,0,1,0-.6,3.94,3.94,0,0,0,0,.6c3-1.79,3.3-5,4.17-7.9C2550.12,323.43,2549.08,323.13,2548.17,323.24Zm-2.36,7.87a8.24,8.24,0,0,1,.65-1.64A8.24,8.24,0,0,0,2545.81,331.11Z"/></g></g></svg>