<svg xmlns="http://www.w3.org/2000/svg" width="514" height="354" viewBox="0 0 514 354">
  <g id="Group_31663" data-name="Group 31663" transform="translate(-960 -169)">
    <g id="Ellipse_4533" data-name="Ellipse 4533" transform="translate(1047 169)" fill="none" stroke="#fff" stroke-width="4" opacity="0.107">
      <circle cx="16.5" cy="16.5" r="16.5" stroke="none"/>
      <circle cx="16.5" cy="16.5" r="14.5" fill="none"/>
    </g>
    <g id="Rectangle_2890" data-name="Rectangle 2890" transform="translate(1398.772 453.864) rotate(-45)" fill="none" stroke="#fff" stroke-width="4" opacity="0.107">
      <rect width="18" height="18" stroke="none"/>
      <rect x="2" y="2" width="14" height="14" fill="none"/>
    </g>
    <g id="Group_31662" data-name="Group 31662">
      <ellipse id="Ellipse_13363" data-name="Ellipse 13363" cx="257" cy="9" rx="257" ry="9" transform="translate(960 505)" fill="#0c1e8b"/>
      <g id="Group_29189" data-name="Group 29189">
        <g id="Group_29116" data-name="Group 29116" transform="translate(102 -7.018)">
          <g id="Rectangle_3598" data-name="Rectangle 3598" transform="translate(940 265.018)" fill="#fff" stroke="#99a4ef" stroke-width="1">
            <rect width="157" height="253" stroke="none"/>
            <rect x="0.5" y="0.5" width="156" height="252" fill="none"/>
          </g>
          <rect id="Rectangle_3599" data-name="Rectangle 3599" width="177" height="37" transform="translate(929 484.018)" fill="#99a4ef"/>
          <g id="Group_29117" data-name="Group 29117" transform="translate(960.494 292.022)">
            <rect id="Rectangle_3588" data-name="Rectangle 3588" width="93.394" height="93.394" transform="translate(11.485 11.963)" fill="#fff"/>
            <path id="Path_28756" data-name="Path 28756" d="M1195.043,1204.689V1227.7h-24.012v5.744h29.234v-28.754Z" transform="translate(-1083.422 -1116.602)" fill="#fff"/>
            <path id="Path_28757" data-name="Path 28757" d="M758.232,765.949h-23.01V789.96h-5.744V760.726h28.753Z" transform="translate(-729.478 -760.726)" fill="#fff"/>
            <g id="Group_29101" data-name="Group 29101" transform="translate(19.925 20.407)">
              <path id="Path_28758" data-name="Path 28758" d="M847.56,863.577H829.9v17.655H847.56Zm-2.848,14.808H832.751V866.424h11.961Z" transform="translate(-829.903 -863.577)" fill="#121b33"/>
              <rect id="Rectangle_3589" data-name="Rectangle 3589" width="7.296" height="7.292" transform="translate(5.022 5.181)" fill="#121b33"/>
              <rect id="Rectangle_3590" data-name="Rectangle 3590" width="5.886" height="5.885" transform="translate(23.541 0)" fill="#121b33"/>
              <path id="Path_28759" data-name="Path 28759" d="M835.788,1011.884H829.9v11.771h5.885v-11.771Z" transform="translate(-829.903 -982.458)" fill="#121b33"/>
              <rect id="Rectangle_3591" data-name="Rectangle 3591" width="5.885" height="5.885" transform="translate(11.772 29.426)" fill="#121b33"/>
              <rect id="Rectangle_3592" data-name="Rectangle 3592" width="5.886" height="5.885" transform="translate(5.885 23.541)" fill="#121b33"/>
              <path id="Path_28760" data-name="Path 28760" d="M1037.312,893v-5.885h-11.771V893h5.885v5.885h5.886v5.886h-11.771V893h-5.885v-5.885h5.885V875.348h-5.885v-5.885h5.885v-5.885h-17.656v5.885h5.884v11.77h-5.884v5.886h5.884v11.77h-5.884v5.886h5.884v11.77h-5.884v5.884h5.884V934.2h-5.884v5.886h17.656V934.2h-5.885v-5.886h5.885V916.544h-5.885v-5.885h11.77v5.885h5.886v-5.885h5.886v5.885h5.886v-11.77H1043.2v-5.886h5.886V893h-11.772Z" transform="translate(-972.572 -863.577)" fill="#121b33"/>
              <path id="Path_28761" data-name="Path 28761" d="M1126.533,863.577v17.655h17.658V863.577Zm14.808,14.808h-11.96V866.424h11.96Z" transform="translate(-1067.678 -863.577)" fill="#121b33"/>
              <rect id="Rectangle_3593" data-name="Rectangle 3593" width="7.292" height="7.292" transform="translate(63.877 5.181)" fill="#121b33"/>
              <path id="Path_28762" data-name="Path 28762" d="M829.9,1177.843H847.56v-17.657H829.9Zm2.848-14.809h11.961V1175H832.751Z" transform="translate(-829.903 -1101.336)" fill="#121b33"/>
              <rect id="Rectangle_3594" data-name="Rectangle 3594" width="7.296" height="7.293" transform="translate(5.022 64.033)" fill="#121b33"/>
              <path id="Path_28763" data-name="Path 28763" d="M888.993,946.2h-5.886V940.32h5.886V928.551h-5.886v-5.886h5.886v-5.885h-5.886V905.009h5.886v-11.77h-5.886v5.885H877.22v11.77h-5.884v5.885h5.884v5.885h-5.884v5.886h5.884v5.884h-5.884v-5.884H859.565v5.884h5.886v5.885H877.22v11.769h5.886v5.886h5.886V946.2Z" transform="translate(-853.679 -887.354)" fill="#121b33"/>
              <rect id="Rectangle_3595" data-name="Rectangle 3595" width="5.886" height="5.886" transform="translate(23.541 70.621)" fill="#121b33"/>
              <rect id="Rectangle_3596" data-name="Rectangle 3596" width="5.885" height="5.885" transform="translate(0 47.081)" fill="#121b33"/>
              <path id="Path_28764" data-name="Path 28764" d="M1126.533,1177.843h17.658v-17.657h-17.658Zm2.848-14.809h11.96V1175h-11.96Z" transform="translate(-1067.678 -1101.336)" fill="#121b33"/>
              <rect id="Rectangle_3597" data-name="Rectangle 3597" width="7.292" height="7.293" transform="translate(63.877 64.033)" fill="#121b33"/>
            </g>
          </g>
          <text id="Scan_N_Pay" data-name="Scan N Pay" transform="translate(975 451.018)" fill="#004e96" font-size="16" font-family="Roboto-Medium, Roboto" font-weight="500"><tspan x="0" y="0">Scan N Pay</tspan></text>
          <rect id="Rectangle_3600" data-name="Rectangle 3600" width="93" height="16" transform="translate(972 410.018)" fill="#d6d9e8"/>
          <rect id="Rectangle_3601" data-name="Rectangle 3601" width="71" height="11" transform="translate(983 279.018)" fill="#004e96"/>
        </g>
        <g id="Group_29115" data-name="Group 29115" transform="translate(1023.186 -111.676)">
          <g id="Group_29108" data-name="Group 29108" transform="translate(170.707 307.408)">
            <g id="Group_29100" data-name="Group 29100" transform="translate(0 0)">
              <path id="Path_28744" data-name="Path 28744" d="M573.054,1100.779a6.029,6.029,0,0,1-6.03,6.029h0a6.029,6.029,0,0,1-6.026-6.029v-25.53a6.028,6.028,0,0,1,6.026-6.028h0a6.028,6.028,0,0,1,6.03,6.028Z" transform="translate(-560.997 -951.139)" fill="#191e1f"/>
              <path id="Path_28745" data-name="Path 28745" d="M574.211,726.93a6.03,6.03,0,0,1-6.03,6.029h0a6.028,6.028,0,0,1-6.026-6.029V667.376a6.027,6.027,0,0,1,6.026-6.028h0a6.029,6.029,0,0,1,6.03,6.028Z" transform="translate(-561.931 -622.079)" fill="#191e1f"/>
              <path id="Path_28746" data-name="Path 28746" d="M579.536,739.244c0,2.705-1.787,4.9-3.99,4.9h0c-2.2,0-3.988-2.193-3.988-4.9V684.475c0-2.706,1.785-4.9,3.988-4.9h0c2.2,0,3.99,2.193,3.99,4.9Z" transform="translate(-569.517 -636.785)" fill="#272e31"/>
              <path id="Path_28747" data-name="Path 28747" d="M579.312,1113.1c0,2.706-1.735,4.9-3.877,4.9h0c-2.141,0-3.878-2.192-3.878-4.9v-20.747c0-2.7,1.736-4.9,3.878-4.9h0c2.141,0,3.877,2.193,3.877,4.9Z" transform="translate(-569.517 -965.847)" fill="#272e31"/>
              <path id="Path_28748" data-name="Path 28748" d="M759.086,765.153A13.584,13.584,0,0,1,745.5,778.74H606.928a13.587,13.587,0,0,1-13.585-13.586V471.708a13.586,13.586,0,0,1,13.585-13.586H745.5a13.584,13.584,0,0,1,13.586,13.586Z" transform="translate(-587.093 -458.122)" fill="#191e1f"/>
              <path id="Path_28749" data-name="Path 28749" d="M745.5,458.122H606.928a13.586,13.586,0,0,0-13.585,13.586v4.754a13.586,13.586,0,0,1,13.585-13.585H745.5a13.585,13.585,0,0,1,13.586,13.585v-4.754A13.585,13.585,0,0,0,745.5,458.122Z" transform="translate(-587.093 -458.122)" fill="#272e31"/>
              <path id="Path_28750" data-name="Path 28750" d="M606.928,2040.813H745.5a13.585,13.585,0,0,0,13.586-13.587v-4.753a13.584,13.584,0,0,1-13.586,13.584H606.928a13.586,13.586,0,0,1-13.585-13.584v4.753A13.588,13.588,0,0,0,606.928,2040.813Z" transform="translate(-587.093 -1720.195)" fill="#4d585d"/>
              <path id="Path_28751" data-name="Path 28751" d="M774.915,796.593a12.768,12.768,0,0,1-12.769,12.768H631.909a12.769,12.769,0,0,1-12.769-12.768V520.8a12.769,12.769,0,0,1,12.769-12.768H762.146A12.768,12.768,0,0,1,774.915,520.8Z" transform="translate(-607.906 -498.385)" fill="#16ccb3"/>
              <path id="Path_28752" data-name="Path 28752" d="M626.789,513.6a12.767,12.767,0,0,0-7.648,11.692v275.8a12.769,12.769,0,0,0,12.769,12.768H762.146a12.768,12.768,0,0,0,12.769-12.768V780.357C755.962,749.65,641.751,538.328,626.789,513.6Z" transform="translate(-607.906 -502.878)" fill="#09f"/>
              <path id="Path_28753" data-name="Path 28753" d="M831.151,495.783v-.224l-2.263.112-2.263-.112v.224l-44.041,2.185s10.417.86,12.908,2.845c2.83,2.257,3.962,4.642,5.207,7.811,1.665,4.231,4.988,4.062,9.222,4.062h37.936c4.237,0,7.559.169,9.222-4.062,1.247-3.17,2.378-5.554,5.208-7.811,2.489-1.984,12.908-2.845,12.908-2.845Z" transform="translate(-739.766 -488.325)" fill="#191e1f"/>
              <g id="Group_29099" data-name="Group 29099" transform="translate(71.914 11.802)">
                <path id="Path_28754" data-name="Path 28754" d="M956.713,522.142a2.944,2.944,0,0,1-2.945,2.943H936.11a2.945,2.945,0,0,1-2.945-2.943h0a2.943,2.943,0,0,1,2.945-2.943h17.658a2.943,2.943,0,0,1,2.945,2.943Z" transform="translate(-933.165 -519.199)" fill="#000300"/>
                <path id="Path_28755" data-name="Path 28755" d="M1086.7,522.142a2.944,2.944,0,1,1-2.944-2.943A2.944,2.944,0,0,1,1086.7,522.142Z" transform="translate(-1052.281 -519.199)" fill="#000300"/>
              </g>
            </g>
            <g id="Group_29107" data-name="Group 29107" transform="translate(22.212 58.472)">
              <g id="Group_29102" data-name="Group 29102" transform="translate(3.103 15.759)">
                <rect id="Rectangle_3588-2" data-name="Rectangle 3588" width="99.333" height="99.332" transform="translate(12.215 12.723)" fill="#fff"/>
                <path id="Path_28756-2" data-name="Path 28756" d="M1196.57,1204.689v24.473h-25.538v6.109h31.092v-30.582Z" transform="translate(-1077.851 -1111)" fill="#fff"/>
                <path id="Path_28757-2" data-name="Path 28757" d="M760.06,766.281H735.587v25.538h-6.109V760.726H760.06Z" transform="translate(-729.478 -760.726)" fill="#fff"/>
                <g id="Group_29101-2" data-name="Group 29101" transform="translate(21.192 21.704)">
                  <path id="Path_28758-2" data-name="Path 28758" d="M848.682,863.577H829.9v18.778h18.779Zm-3.029,15.75H832.932V866.6h12.722Z" transform="translate(-829.903 -863.577)" fill="#121b33"/>
                  <rect id="Rectangle_3589-2" data-name="Rectangle 3589" width="7.76" height="7.756" transform="translate(5.341 5.51)" fill="#121b33"/>
                  <rect id="Rectangle_3590-2" data-name="Rectangle 3590" width="6.261" height="6.259" transform="translate(25.038 0)" fill="#121b33"/>
                  <path id="Path_28759-2" data-name="Path 28759" d="M836.162,1011.884H829.9V1024.4h6.26v-12.519Z" transform="translate(-829.902 -980.587)" fill="#121b33"/>
                  <rect id="Rectangle_3591-2" data-name="Rectangle 3591" width="6.26" height="6.259" transform="translate(12.52 31.297)" fill="#121b33"/>
                  <rect id="Rectangle_3592-2" data-name="Rectangle 3592" width="6.261" height="6.259" transform="translate(6.26 25.038)" fill="#121b33"/>
                  <path id="Path_28760-2" data-name="Path 28760" d="M1039.183,894.874v-6.259h-12.519v6.259h6.259v6.259h6.26v6.26h-12.519V894.874h-6.26v-6.259h6.26V876.1h-6.26v-6.26h6.26v-6.259h-18.779v6.259h6.258v12.518h-6.258v6.26h6.258v12.518h-6.258v6.26h6.258v12.518h-6.258v6.258h6.258v12.519h-6.258v6.261h18.779v-6.261h-6.26v-6.26h6.26V919.911h-6.26v-6.26h12.519v6.26h6.26v-6.26h6.26v6.26h6.261V907.393h-6.261v-6.26h6.261v-6.259h-12.521Z" transform="translate(-970.326 -863.577)" fill="#121b33"/>
                  <path id="Path_28761-2" data-name="Path 28761" d="M1126.533,863.577v18.778h18.781V863.577Zm15.75,15.75h-12.721V866.6h12.721Z" transform="translate(-1063.936 -863.577)" fill="#121b33"/>
                  <rect id="Rectangle_3593-2" data-name="Rectangle 3593" width="7.756" height="7.756" transform="translate(67.939 5.51)" fill="#121b33"/>
                  <path id="Path_28762-2" data-name="Path 28762" d="M829.9,1178.966h18.779v-18.779H829.9Zm3.029-15.751h12.722v12.724H832.932Z" transform="translate(-829.903 -1097.594)" fill="#121b33"/>
                  <rect id="Rectangle_3594-2" data-name="Rectangle 3594" width="7.76" height="7.757" transform="translate(5.341 68.105)" fill="#121b33"/>
                  <path id="Path_28763-2" data-name="Path 28763" d="M890.864,949.572H884.6v-6.258h6.261V930.8H884.6v-6.26h6.261v-6.259H884.6V905.757h6.261V893.239H884.6V899.5h-6.261v12.519h-6.258v6.259h6.258v6.259h-6.258v6.26h6.258v6.258h-6.258V930.8h-12.52v6.258h6.261v6.259h12.518v12.517H884.6v6.26h6.261V949.572Z" transform="translate(-853.305 -886.979)" fill="#121b33"/>
                  <rect id="Rectangle_3595-2" data-name="Rectangle 3595" width="6.261" height="6.261" transform="translate(25.038 75.112)" fill="#121b33"/>
                  <rect id="Rectangle_3596-2" data-name="Rectangle 3596" width="6.26" height="6.26" transform="translate(0 50.075)" fill="#121b33"/>
                  <path id="Path_28764-2" data-name="Path 28764" d="M1126.533,1178.966h18.781v-18.779h-18.781Zm3.029-15.751h12.721v12.724h-12.721Z" transform="translate(-1063.936 -1097.594)" fill="#121b33"/>
                  <rect id="Rectangle_3597-2" data-name="Rectangle 3597" width="7.756" height="7.757" transform="translate(67.939 68.105)" fill="#121b33"/>
                </g>
              </g>
              <g id="Group_29105" data-name="Group 29105" transform="translate(31.072 157.297)">
                <g id="Group_29103" data-name="Group 29103" transform="translate(-11)">
                  <path id="Path_28765" data-name="Path 28765" d="M931.756,1453.956a9.034,9.034,0,0,1-9.033,9.034h-71.76a9.033,9.033,0,0,1-9.034-9.034V1438.9a9.034,9.034,0,0,1,9.034-9.032h71.76a9.034,9.034,0,0,1,9.033,9.032Z" transform="translate(-841.929 -1429.865)" fill="#006194"/>
                </g>
                <g id="Group_29104" data-name="Group 29104" transform="translate(5.721 9.504)">
                  <path id="Path_28767" data-name="Path 28767" d="M903.866,1488.517l-.018.313-.036.312-.055.293-.092.4-.091.256-.165.367-.128.239-.221.33-.184.221-.219.219-.221.2-.367.238-.238.166-.276.146-.257.129-.422.146-.55.183-.294.056-.458.073-.275.037-.4.036-.257.018-.422.019-.88.055h-.4l-.257-.019-.422-.036-.275-.037-.312-.055-.276-.091-.4-.128-.257-.129-.276-.128-.257-.129-.239-.146-.587-.4-.221-.183-.33-.258-.221-.183-.2-.2-.146-.164-.019-.129.092-.164.073-.092.183-.2.514-.477.165-.2.312-.478.166-.2.184-.2.2-.11.2.037.2.147.588.4.275.146.257.128.422.2.276.092.293.091.294.055.422.018.294.019,1.156-.073.293-.037.147-.037.275-.109.239-.147.183-.184.091-.128.11-.275-.018-.312-.037-.147-.146-.257-.092-.11-.238-.184-.147-.055-.275-.109-.312-.074-.312-.054-1.744-.166-.549-.11-.294-.073-.4-.146-.275-.092-.276-.128-.624-.312-.239-.165-.275-.165-.239-.165-.312-.257-.165-.238-.164-.276-.11-.275-.128-.385-.055-.276-.055-.4-.037-.588.019-.293.036-.441.055-.275.073-.239.092-.275.184-.4.128-.257.147-.22.183-.2.294-.275.239-.183.239-.166.257-.128.349-.2.549-.221.276-.091.422-.074.294-.054.549-.074.4-.073.294-.036.275-.019h.294l.55.055.275.037.128.036.294.036.624.11.312.073.294.091.312.092.294.111.275.128.276.11.348.2.257.128.239.166.165.164v.184l-.11.2-.2.367-.146.221-.7.917-.2.257-.221.184-.146.055-.128-.018-.184-.093-.274-.165-.276-.109-.128-.055-.275-.092-.147-.036-.312-.074-.422-.091-.293-.018-.477-.037h-.477l-.312.018-.312.055-.294.092-.11.055-.221.164-.091.11-.13.257-.036.294.055.239.146.238.2.184.221.109.128.055.275.055.459.055.624.037.312.055.624.147.588.183.421.091.276.074.514.184.367.164.257.128.257.147.238.146.533.44.2.221.184.219.221.331.146.239.128.274.073.275.074.4.036.275Z" transform="translate(-892.235 -1479.051)" fill="#fff"/>
                  <path id="Path_28768" data-name="Path 28768" d="M971.14,1490.957l-.147.147-.33.294-.221.166-.348.256-.221.146-.367.2-.239.128-.422.2-.274.091-.312.092-.312.056-.459.091-.642.073-.33.019-.459.036H965.1l-.312-.018-.312-.037-.312-.054-.312-.074-.276-.092-.825-.22-.4-.147-.239-.11-.348-.2-.221-.166-.239-.164-.256-.166-.476-.4-.22-.22-.2-.239-.2-.276-.165-.257-.147-.257-.129-.256-.183-.385-.275-.771-.128-.367-.184-.551-.037-.275-.018-.422.018-.275.019-.294v-.312l.036-.624.018-.294.055-.275.075-.4.073-.275.091-.276.092-.257.128-.367.128-.257.128-.275.146-.276.165-.275.166-.258.183-.238.2-.258.22-.238.221-.2.239-.2.219-.184.588-.4.239-.147.256-.146.551-.257.312-.11.294-.092.624-.147.312-.055.312-.037.568-.036.4-.037.275.019.4.018.679.091.257.055.422.073.642.183.257.111.4.239.257.146.476.331.57.4.2.147.11.091.128.128.036.148-.018.146-.11.146-.164.2-.2.2-.2.184-.2.166-.2.2-.312.367-.2.22-.091.092-.165.146-.128.055-.128.018-.128-.036-.2-.11-.349-.257-.239-.128-.4-.183-.258-.092-.4-.109-.276-.055-.458-.037h-.294l-.4.037-.294.073-.4.128-.275.11-.238.091-.367.184-.257.184-.128.11-.221.239-.165.257-.128.238-.128.257-.11.275-.092.294-.055.312-.036.276-.037.55v.293l.019.459.018.275.091.422.092.275.129.312.146.276.276.4.2.221.349.294.238.165.367.183.276.11.4.11.294.055.44.018h.422l.257-.055.147-.036.274-.092.458-.164.294-.129.276-.129.239-.128.348-.219.239-.183.183-.129.11-.037.164.037.2.129.2.183.073.11.184.2.294.367.184.219.5.569.165.221.091.092.092.164Z" transform="translate(-945.843 -1479.051)" fill="#fff"/>
                  <path id="Path_28769" data-name="Path 28769" d="M1043.76,1493.57l.055.257-.128.2-.2.093-.239.036h-.256l-.422-.036-.276-.019h-.825l-1.137.073-.239-.073-.11-.146-.092-.2-.569-1.541-.128-.184-.164-.037-.221-.018-1.1-.073h-.294l-1.375-.037-1.1-.018h-.275l-.275.018h-.844l-.239.037-.146.091-.11.221-.422,1.248-.11.294-.2.239-.275.109-.294-.018-1.064-.055h-.294l-1.138.073-.238.019-.22-.11-.147-.2.018-.239.036-.147.11-.293.256-.57.11-.275.459-1.028.109-.256.477-1.028.11-.275.422-.991.11-.274.5-1.028.109-.257.661-1.505.513-1.1.128-.294.4-.825.128-.294.349-.844.109-.275.331-.753.091-.2.183-.11.276-.054.843-.037h1.431l.844.018.312.055.2.147.093.238.257.716.11.275.458.862.11.258.4.9.109.257.331.935.11.258.4.88.111.257.4.9.11.258.367.916.111.258.568,1.137.44.862.128.257.5,1.156Zm-6.127-5.174-.073-.239-.4-1.247-.091-.276-.367-1.082-.092-.239-.183-.128-.238-.055-.2.055-.184.183-.5,1.247-.109.276-.477,1.229-.055.275.055.221.2.091.257.037h1.156l.862.055.239-.074.146-.147Z" transform="translate(-1002.286 -1480.508)" fill="#fff"/>
                  <path id="Path_28770" data-name="Path 28770" d="M1129.665,1483.333l-.019.294v2.715l.055,1.064v.294l.037,2.421v.312l-.018.148-.019.312-.055.88.019,1.064-.019.256-.073.22-.146.2-.184.128-.165.055-.257.018-.935.037-.294.019-.458.018h-.294l-.239-.054-.219-.093-.221-.166-.166-.237-.275-.532-.165-.239-.715-.9-.183-.22-.716-.88-.166-.238-.641-.955-.165-.22-.715-.88-.183-.221-.679-.9-.165-.148-.129.055-.055.22-.036.917v.294l.018.918v.293l.018,1.027v.294l-.055,1.027.019.294.109.733.02.294-.055.239-.129.128-.128.037-.221.036-.146.019-.312.018-.844-.018h-.294l-.752.036h-.294l-.275-.019-.2-.037-.147-.091-.073-.128-.037-.184-.018-.128v-.276l.037-.606.018-.293-.055-.972v-.294l.037-2.238.018-.294.055-.973.018-.293v-1.266l-.073-.972v-.294l.073-.973-.018-.294-.073-.99-.019-.293v-.422l.019-.276.036-.275.037-.2.055-.13.11-.054.2-.037.551-.037.551.037h1.375l.221.018.091.073.11.166.77.825.184.221.679.88.183.221.679.9.184.221.661.918.164.219.7.881.183.219.66.918.147.128.146.019.128-.091v-.2l-.128-.771-.018-.294.055-.788v-.294l-.073-1.119v-.294l.073-1.119-.019-.294-.054-.679v-.458l.054-.239.074-.146.128-.074.22-.036h.165l.312-.019.825.055h.294l.624-.036.276.018.422.018.2.037.128.055.11.128.036.257.019.166.018.312-.037.568-.036.294Z" transform="translate(-1073.736 -1480.122)" fill="#fff"/>
                </g>
              </g>
            </g>
          </g>
          <g id="Group_29113" data-name="Group 29113" transform="translate(77.229 502.131)">
            <g id="Group_29109" data-name="Group 29109">
              <path id="Path_28774" data-name="Path 28774" d="M200.766,1574.2A61.768,61.768,0,1,1,139,1512.435,61.769,61.769,0,0,1,200.766,1574.2Z" transform="translate(-77.229 -1512.435)" fill="#ffc300"/>
              <path id="Path_28775" data-name="Path 28775" d="M203.429,1512.435a61.61,61.61,0,0,0-46.337,20.944,61.753,61.753,0,0,1,87.145,87.174,61.755,61.755,0,0,0-40.808-108.118Z" transform="translate(-141.66 -1512.435)" fill="#fff" style="mix-blend-mode: soft-light;isolation: isolate"/>
              <path id="Path_28776" data-name="Path 28776" d="M251.5,1640.929a45.789,45.789,0,1,1-45.788-45.788A45.789,45.789,0,0,1,251.5,1640.929Z" transform="translate(-143.945 -1579.16)" fill="#fc9c00"/>
              <path id="Path_28777" data-name="Path 28777" d="M210.63,1727.944a45.777,45.777,0,0,1-34.732-75.609,45.778,45.778,0,1,0,64.548,64.555A45.588,45.588,0,0,1,210.63,1727.944Z" transform="translate(-143.945 -1625.302)" fill="#cc7300"/>
            </g>
            <path id="Path_24404" data-name="Path 24404" d="M163.877,374.578l9.17-.042,3.994-4.945-33.381.155-3.994,4.944,9.086-.042s6.347,1.446,9.012,5.017l-15.107.07-3.994,4.945,20.078-.093c-.639,3.437-2.721,5.924-7.779,7.8-4.9,1.818-13.173,1.436-13.173,1.436l-.481,4.8,18.885,22.943,8.794-.041-19.316-22.9s17.835-1.714,20.419-14.073l5.954-.028,3.994-4.944-9.757.046A9.3,9.3,0,0,0,163.877,374.578Z" transform="translate(-93.801 -333.763)" fill="#ce7a03"/>
          </g>
          <g id="Group_29114" data-name="Group 29114" transform="translate(275.583 298.31)">
            <path id="Path_28779" data-name="Path 28779" d="M1275.346,300.16s-29.68.535-52.117-28.85c-19.77,28.317-52.121,28.85-52.121,28.85s-1.123,47.748,5.155,75.865c5.728,25.644,46.966,40.069,46.966,40.069s41.235-14.425,46.964-40.069C1276.472,347.907,1275.346,300.16,1275.346,300.16Z" transform="translate(-1162.701 -280.758)" fill="#fff"/>
            <path id="Path_28780" data-name="Path 28780" d="M1303.1,354.035s-25.737.463-45.195-25.018c-17.142,24.554-45.2,25.018-45.2,25.018s-.976,41.405,4.469,65.787c4.967,22.238,40.727,34.746,40.727,34.746s35.758-12.508,40.727-34.746C1304.08,395.44,1303.1,354.035,1303.1,354.035Z" transform="translate(-1197.382 -328.849)" fill="#7dd321"/>
            <path id="Path_28781" data-name="Path 28781" d="M1257.91,329.017c-17.142,24.554-45.2,25.018-45.2,25.018s-.976,41.405,4.469,65.787c4.967,22.238,40.727,34.746,40.727,34.746Z" transform="translate(-1197.382 -328.849)" fill="#6abe10"/>
            <path id="Path_28782" data-name="Path 28782" d="M1348.312,588.96l23.1,16.022,26.217-40.134" transform="translate(-1313.737 -519.351)" fill="none" stroke="#fff" stroke-miterlimit="10" stroke-width="8"/>
          </g>
        </g>
      </g>
    </g>
  </g>
</svg>
