<svg xmlns="http://www.w3.org/2000/svg" enable-background="new 0 0 512 512" viewBox="0 0 512 512" id="GiftBox">
  <path fill="#25a6a1" d="M390.2,98.7h-9c27,0,20.1-36,0-36c-11,0-41.9,13.3-64.4,23.8c-14.2,6.6-25.1,12-25.6,12.2
			c0.4-0.4,11.4-11.4,26.9-23.6c24.2-19.2,59.3-41.3,81.1-30.4C435.2,62.7,426.2,98.7,390.2,98.7z" class="color5c77ff svgShape"></path>
  <path fill="#25a6a1" d="M291.2,98.7c-0.4-0.2-11.3-5.7-25.6-12.2c-22.5-10.4-53.5-23.8-64.4-23.8c-20.1,0-27,36,0,36h-9
		c-36,0-45-36-9-54c21.8-10.9,56.9,11.3,81.1,30.4C279.8,87.4,290.8,98.3,291.2,98.7z" class="color5c77ff svgShape"></path>
  <path fill="#8de6ff" d="M291.2,98.7C291.2,98.7,291.2,98.7,291.2,98.7C291.2,98.7,291.2,98.7,291.2,98.7c-0.4-0.4-11.4-11.4-26.9-23.6
		c1.4-13.6,12.9-24.3,26.9-24.3s25.5,10.7,26.9,24.3C302.7,87.4,291.6,98.3,291.2,98.7z" class="color8da6ff svgShape"></path>
  <path fill="#25a6a1" d="M318.6,98v231.8h-12.6c0.7-1.7,1.4-3.4,1.9-5c2-5.8-2.2-11.8-8.4-11.8h-38.9V98H318.6z" class="color5c77ff svgShape"></path>
  <circle cx="79" cy="468" r="12.6" fill="#25a6a1" class="color5c77ff svgShape"></circle>
  <path fill="#25a6a1" d="M467.9 24.2c-1.3 0-2.6-.5-3.5-1.5-2-2-2-5.1 0-7.1l6.4-6.4c2-2 5.1-2 7.1 0 2 2 2 5.1 0 7.1l-6.4 6.4C470.5 23.7 469.2 24.2 467.9 24.2zM455.2 24.2c-1.3 0-2.6-.5-3.5-1.5l-6.4-6.4c-2-2-2-5.1 0-7.1 2-2 5.1-2 7.1 0l6.4 6.4c2 2 2 5.1 0 7.1C457.8 23.7 456.5 24.2 455.2 24.2zM474.3 43.3c-1.3 0-2.6-.5-3.5-1.5l-6.4-6.4c-2-2-2-5.1 0-7.1 2-2 5.1-2 7.1 0l6.4 6.4c2 2 2 5.1 0 7.1C476.9 42.8 475.6 43.3 474.3 43.3zM448.8 43.3c-1.3 0-2.6-.5-3.5-1.5-2-2-2-5.1 0-7.1l6.4-6.4c2-2 5.1-2 7.1 0 2 2 2 5.1 0 7.1l-6.4 6.4C451.4 42.8 450.1 43.3 448.8 43.3z" class="color5c77ff svgShape"></path>
  <g opacity=".3" fill="#000000" class="color000000 svgShape">
    <path fill="#48d6ff" d="M111.9 134.2c-1.3 0-2.6-.5-3.5-1.5-2-2-2-5.1 0-7.1l6.4-6.4c2-2 5.1-2 7.1 0 2 2 2 5.1 0 7.1l-6.4 6.4C114.4 133.7 113.1 134.2 111.9 134.2zM99.1 134.2c-1.3 0-2.6-.5-3.5-1.5l-6.4-6.4c-2-2-2-5.1 0-7.1 2-2 5.1-2 7.1 0l6.4 6.4c2 2 2 5.1 0 7.1C101.7 133.7 100.4 134.2 99.1 134.2zM118.2 153.3c-1.3 0-2.6-.5-3.5-1.5l-6.4-6.4c-2-2-2-5.1 0-7.1 2-2 5.1-2 7.1 0l6.4 6.4c2 2 2 5.1 0 7.1C120.8 152.8 119.5 153.3 118.2 153.3zM92.8 153.3c-1.3 0-2.6-.5-3.5-1.5-2-2-2-5.1 0-7.1l6.4-6.4c2-2 5.1-2 7.1 0 2 2 2 5.1 0 7.1l-6.4 6.4C95.3 152.8 94.1 153.3 92.8 153.3z" class="color485eff svgShape"></path>
  </g>
  <path fill="#25a6a1" d="M464.9 225.8c-1.3 0-2.6-.5-3.5-1.5-2-2-2-5.1 0-7.1l6.4-6.4c2-2 5.1-2 7.1 0 2 2 2 5.1 0 7.1l-6.4 6.4C467.4 225.3 466.1 225.8 464.9 225.8zM452.1 225.8c-1.3 0-2.6-.5-3.5-1.5l-6.4-6.4c-2-2-2-5.1 0-7.1 2-2 5.1-2 7.1 0l6.4 6.4c2 2 2 5.1 0 7.1C454.7 225.3 453.4 225.8 452.1 225.8zM471.2 244.8c-1.3 0-2.6-.5-3.5-1.5l-6.4-6.4c-2-2-2-5.1 0-7.1 2-2 5.1-2 7.1 0l6.4 6.4c2 2 2 5.1 0 7.1C473.8 244.4 472.5 244.8 471.2 244.8zM445.8 244.8c-1.3 0-2.6-.5-3.5-1.5-2-2-2-5.1 0-7.1l6.4-6.4c2-2 5.1-2 7.1 0 2 2 2 5.1 0 7.1l-6.4 6.4C448.3 244.4 447.1 244.8 445.8 244.8z" class="color5c77ff svgShape"></path>
  <g fill="#000000" class="color000000 svgShape">
    <path fill="#25a6a1" d="M48.2,73.8h-9.6c-4.5,0-8.2-3.7-8.2-8.2v-4.6h-4.6c-4.5,0-8.2-3.7-8.2-8.2v-9.6c0-2.8,2.2-5,5-5s5,2.2,5,5
			v7.7h4.6c4.5,0,8.2,3.7,8.2,8.2v4.6h7.7c2.8,0,5,2.2,5,5S51,73.8,48.2,73.8z" class="color5c77ff svgShape"></path>
  </g>
  <g fill="#000000" class="color000000 svgShape">
    <path fill="#97e8ff" d="M151.2,49.7c-0.3,0-0.6,0-1-0.1l-9.4-1.8c-4.4-0.9-7.3-5.2-6.4-9.6l0.9-4.5l-4.5-0.9
			c-4.4-0.9-7.3-5.2-6.4-9.6l1.8-9.4c0.5-2.7,3.2-4.5,5.9-3.9c2.7,0.5,4.5,3.2,3.9,5.9l-1.5,7.6l4.5,0.9c2.1,0.4,4,1.7,5.2,3.5
			c1.2,1.8,1.7,4,1.2,6.1l-0.9,4.5l7.6,1.5c2.7,0.5,4.5,3.2,3.9,5.9C155.6,48.1,153.5,49.7,151.2,49.7z" class="color97adff svgShape"></path>
  </g>
  <g fill="#000000" class="color000000 svgShape">
    <path fill="#97e8ff" d="M468.1,127.8c-2.3,0-4.3-1.5-4.9-3.8c-0.6-2.7,1-5.4,3.7-6l7.5-1.8l-1.1-4.4c-1-4.4,1.7-8.8,6-9.9l4.4-1.1
			l-1.8-7.5c-0.6-2.7,1-5.4,3.7-6c2.7-0.6,5.4,1,6,3.7l2.2,9.3c1,4.4-1.7,8.8-6,9.9l-4.4,1.1l1.1,4.4c0.5,2.1,0.2,4.3-1,6.2
			c-1.1,1.9-2.9,3.2-5.1,3.7l-9.3,2.2C468.9,127.8,468.5,127.8,468.1,127.8z" class="color97adff svgShape"></path>
  </g>
  <path fill="#357587" d="M460.1,316.3c-0.2-4.9-3-9.3-7.3-11.7c-6.6-3.6-13.9-5.6-21.6-5.9V138.8h6.9c2.8,0,5-2.2,5-5v-36
		c0-2.8-2.2-5-5-5h-297c-2.8,0-5,2.2-5,5v36c0,2.8,2.2,5,5,5h6.9v191c0,2.8,2.2,5,5,5h10.3l-9,9c-3,3-6.7,4.9-10.8,5.6v-10.7
		c0-2.8-2.2-5-5-5h-21.6v-1.7c0-2.8-2.2-5-5-5H27.3c-2.8,0-5,2.2-5,5s2.2,5,5,5h79.6v157.1H27.3c-2.8,0-5,2.2-5,5s2.2,5,5,5h84.6
		c2.8,0,5-2.2,5-5v-13.6h21.6c2.8,0,5-2.2,5-5v-27H185c8.6,0,17.1-1.5,25.2-4.6l148-55.8c2.5-0.9,4.8-2.2,7-3.7l88.8-61c0,0,0,0,0,0
		C458.1,325.8,460.3,321.2,460.1,316.3z M146.1,102.8h287v26h-6.9H153h-6.9V102.8z M173.3,324.8H158v-186h263.2v160.5
		c-0.1,0-0.1,0-0.2,0c-0.7,0.1-1.4,0.2-2.1,0.4c-0.1,0-0.1,0-0.2,0c-0.7,0.1-1.4,0.3-2.1,0.4c0,0-0.1,0-0.1,0
		c-0.7,0.2-1.3,0.3-2,0.5c-0.1,0-0.2,0-0.3,0.1c-0.6,0.2-1.2,0.3-1.8,0.5c-0.1,0-0.2,0.1-0.3,0.1c-0.6,0.2-1.2,0.4-1.7,0.5
		c-0.1,0-0.2,0.1-0.3,0.1c-0.6,0.2-1.1,0.4-1.7,0.6c-0.1,0-0.1,0-0.1,0.1c-0.5,0.2-1,0.4-1.5,0.6c-0.1,0-0.1,0-0.2,0.1
		c-0.5,0.2-1,0.4-1.4,0.6c-0.1,0-0.2,0.1-0.3,0.1c-0.4,0.2-0.9,0.4-1.3,0.6c-0.1,0-0.2,0.1-0.3,0.1c-0.4,0.2-0.8,0.4-1.1,0.5
		c-0.1,0-0.1,0.1-0.2,0.1c-0.4,0.2-0.7,0.3-1,0.5c0,0-0.1,0-0.1,0.1c-0.3,0.2-0.6,0.3-0.8,0.4c-0.1,0-0.1,0.1-0.2,0.1
		c-0.3,0.1-0.5,0.3-0.7,0.4c-0.1,0-0.1,0.1-0.2,0.1c-0.2,0.1-0.4,0.2-0.5,0.3c-0.1,0-0.1,0.1-0.2,0.1c-0.1,0.1-0.2,0.1-0.3,0.2
		c-0.2,0.1-0.3,0.2-0.4,0.3l-29,17h-29.4H313c0.1-0.5,0.2-1,0.2-1.5c0-0.2,0-0.3,0-0.5c0-0.4,0-0.7,0-1.1c0-0.2,0-0.4,0-0.6
		c0-0.3,0-0.6-0.1-1c0-0.2-0.1-0.4-0.1-0.6c-0.1-0.3-0.1-0.6-0.2-0.9c0-0.2-0.1-0.4-0.2-0.6c-0.1-0.3-0.2-0.6-0.3-0.9
		c-0.1-0.2-0.1-0.4-0.2-0.6c-0.1-0.3-0.3-0.6-0.4-1c-0.1-0.2-0.1-0.3-0.2-0.5c-0.3-0.5-0.5-0.9-0.8-1.3c-2.6-3.6-6.8-5.8-11.3-5.8
		H206c-10.3,0-19.9,4-27.2,11.2L173.3,324.8z M309.1,334.8h21.3l-10.3,17.5h-19.8l-5.8-0.7C299.5,349,304.7,343.9,309.1,334.8z
		 M342,334.8h9.5l-14.5,8.5L342,334.8z M133.5,475.6h-16.6V343.7h16.6v11v93.9V475.6z M448.4,320.4L448.4,320.4l-88.8,61
		c-1.5,1-3.1,1.9-4.9,2.5l-148,55.8c-7,2.6-14.3,4-21.7,4h-41.5v-84.1c6.7-0.7,13-3.7,17.8-8.6l24.5-24.5c5.4-5.4,12.5-8.3,20.1-8.3
		h93.5c1.3,0,2.4,0.6,3.1,1.6c0.7,1,0.9,2.3,0.5,3.5c-0.5,1.5-1.1,3.1-1.8,4.6c-3.2,7.5-8.9,16.5-17.7,16.5h-51.3
		c-2.6,0-4.8,2.1-5,4.7c-0.2,2.6,1.8,4.9,4.4,5.3l67.6,8c0.2,0,0.4,0,0.6,0h23c0,0,0,0,0,0c0,0,0,0,0,0c0.2,0,0.4,0,0.7,0
		c0,0,0.1,0,0.1,0c0.2,0,0.4-0.1,0.6-0.1c0,0,0.1,0,0.1,0c0.2,0,0.3-0.1,0.5-0.2c0.2-0.1,0.4-0.2,0.6-0.3l46.8-27.4
		c0.1,0,0.1-0.1,0.2-0.1l30.3-17.7c0.1,0,0.1-0.1,0.2-0.1c0,0,0.1-0.1,0.3-0.2c1.8-1.1,11.4-6.5,23.4-7.3c0,0,0,0,0,0
		c7.8-0.5,15,1,21.4,4.6c1.8,1,2.1,2.7,2.1,3.4C450.1,317.5,450,319.2,448.4,320.4z" class="color354b87 svgShape"></path>
</svg>
