<svg xmlns="http://www.w3.org/2000/svg" viewBox="0 0 64 64" id="DiscountEmail">
  <polyline fill="#21687c" points="11 32 32 16 53 32 35 49 11 32" class="color21257c svgShape"></polyline>
  <rect width="32" height="36" x="16" y="12" fill="#e6f9ff" rx="2" class="colore6f3ff svgShape"></rect>
  <path fill="#e6f9ff" d="M54,33.64331A2,2,0,0,0,50.92627,31.956L32,44,13.07373,31.956A2,2,0,0,0,10,33.64331V56H54Z" class="colore6f3ff svgShape"></path>
  <path fill="#25a6a1" d="M10,56v3a2,2,0,0,0,2,2H52a2,2,0,0,0,2-2V56Z" class="color4aa5ff svgShape"></path>
  <circle cx="28" cy="20" r="2" fill="#e6f9ff" class="colore6f3ff svgShape"></circle>
  <circle cx="36" cy="30" r="2" fill="#e6f9ff" class="colore6f3ff svgShape"></circle>
  <path fill="#25a6a1" d="M36.9502 10.01751a.9968.9968 0 00.707-.293l2.82812-2.82861a.99989.99989 0 00-1.41406-1.41406L36.24316 8.31048A1.00662 1.00662 0 0036.9502 10.01751zM26.34277 9.72454a1.00008 1.00008 0 001.414-1.4141L24.92871 5.48187a1.00008 1.00008 0 00-1.414 1.4141zM32 7.96722a.99974.99974 0 001-1v-4a1 1 0 10-2 0v4A.99974.99974 0 0032 7.96722z" class="color4aa5ff svgShape"></path>
  <path fill="#21687c" d="M12,61.96722H52a3.00328,3.00328,0,0,0,3-3V33.61077a2.89886,2.89886,0,0,0-1.73613-2.7L49,27.66161V13.96722a3.00328,3.00328,0,0,0-3-3H18a3.00328,3.00328,0,0,0-3,3V27.66161l-4.264,3.24927A2.89926,2.89926,0,0,0,9,33.61076L9,58.96722A3.00328,3.00328,0,0,0,12,61.96722Zm40-2H12a1.001,1.001,0,0,1-1-1V33.61077c.00747-.6504.36955-.66674.76176-.96639a.91434.91434,0,0,1,.77536.12264L31.46289,44.811a1.00264,1.00264,0,0,0,1.07422,0L51.46289,32.767a.93532.93532,0,0,1,.77667-.1217c.37781.2925.76518.32394.7604.96549l0,17.35641H46.46289a1,1,0,0,0,0,2H53v2H42a1,1,0,0,0,0,2H53v2A1.001,1.001,0,0,1,52,59.96722Zm-1.72241-28.817L49,31.96325V30.17669ZM18,12.96722H46a1.001,1.001,0,0,1,1,1V33.236L32,42.78167,17,33.236V13.96722A1.001,1.001,0,0,1,18,12.96722Zm-3,18.996-1.27759-.813L15,30.17669Z" class="color21257c svgShape"></path>
  <path fill="#25a6a1" d="M28 22.96722a3.00019 3.00019 0 00-.00009-6A3.00019 3.00019 0 0028 22.96722zm0-4a1.00019 1.00019 0 01-.00006 2A1.00019 1.00019 0 0128 18.96722zM33 29.96722a3.00019 3.00019 0 006-.00009A3.00019 3.00019 0 0033 29.96722zm4 0a1.00019 1.00019 0 01-2-.00006A1.00019 1.00019 0 0137 29.96722zM25.793 31.17425a.99964.99964 0 001.41406 0l10-10A.99989.99989 0 1035.793 19.76019l-10 10A.99962.99962 0 0025.793 31.17425z" class="color4aa5ff svgShape"></path>
</svg>
