<?xml version="1.0" encoding="utf-8"?>
<!-- Generator: Adobe Illustrator 27.5.0, SVG Export Plug-In . SVG Version: 6.00 Build 0)  -->
<svg version="1.1" xmlns="http://www.w3.org/2000/svg" xmlns:xlink="http://www.w3.org/1999/xlink" x="0px" y="0px"
	 viewBox="0 0 500 500" style="enable-background:new 0 0 500 500;" xml:space="preserve">
<g id="BACKGROUND">
</g>
<g id="OBJECTS">
	<g>
		<path style="fill:#CCFBFF;" d="M433.121,203.863c0.786-2.065,0.013-4.614-1.787-5.896c-1.8-1.282-4.461-1.178-6.156,0.24
			c1.405-3.331-0.023-7.599-3.148-9.414c-3.126-1.815-7.541-0.94-9.737,1.931c-2.827-7.484-11.628-12.15-19.409-10.292
			c-7.781,1.859-13.522,9.999-12.662,17.953c-2.01-2.732-6.262-3.472-9.077-1.58c-2.815,1.892-3.734,6.109-1.963,9.001l-8.975,2.382
			h78.995L433.121,203.863z"/>
		<path style="fill:#CCFBFF;" d="M110.906,202.184c1.773-5.117,0.297-11.205-3.622-14.942c-3.918-3.737-10.07-4.923-15.097-2.91
			c-5.027,2.013-8.66,7.117-8.916,12.526c-0.246-1.86-2.126-3.344-3.992-3.152c-1.866,0.192-3.404,2.029-3.265,3.899
			c-0.983-4.263-5.761-7.244-10.022-6.254c-4.261,0.99-7.234,5.773-6.236,10.033l-14.668,2.877h77.022L110.906,202.184z"/>
		<path style="fill:#CCFBFF;" d="M140.638,130.152c0.785-2.065,0.013-4.614-1.787-5.896c-1.8-1.282-4.462-1.178-6.156,0.24
			c1.405-3.331-0.023-7.599-3.148-9.414c-3.126-1.815-7.54-0.94-9.737,1.931c-2.827-7.484-11.628-12.15-19.409-10.292
			c-7.781,1.859-13.522,9.999-12.662,17.953c-2.01-2.732-6.262-3.472-9.077-1.58c-2.815,1.892-3.734,6.109-1.963,9.002l-8.975,2.382
			h78.996L140.638,130.152z"/>
		<path style="fill:#CCFBFF;" d="M355.888,136.809c1.773-5.116,0.297-11.205-3.622-14.942c-3.918-3.737-10.07-4.923-15.097-2.91
			c-5.027,2.013-8.66,7.117-8.916,12.526c-0.246-1.859-2.126-3.344-3.992-3.152c-1.866,0.192-3.404,2.029-3.265,3.899
			c-0.983-4.263-5.761-7.244-10.022-6.254c-4.261,0.99-7.234,5.773-6.236,10.033l-14.668,2.877h77.021L355.888,136.809z"/>
		<path style="fill:#CCFBFF;" d="M38.575,410.776h401.427c0,0,40.856-107.868,9.728-116.948
			c-31.128-9.079-41.505,66.796-41.505,66.796s28.005-144.913-33.014-135.038c-61.019,9.876-11.468,133.092-11.468,133.092
			s-36.362-148.927-131.478-128.29s-80.502,102.146-80.502,102.146s-39.257-110.83-89.841-87.739
			c-50.584,23.091,61.655,99.347,61.655,99.347s-61.007-21.781-68.789,4.16c-7.782,25.94,59.142,34.848,59.142,34.848
			S85.267,383.106,38.575,410.776z"/>
		<g>
			<path style="fill:#0F4C75;" d="M326.489,410.776H173.511c-4.183,0-7.573-3.391-7.573-7.573V96.798
				c0-4.183,3.391-7.574,7.573-7.574h152.979c4.183,0,7.574,3.391,7.574,7.574v306.405
				C334.063,407.385,330.672,410.776,326.489,410.776z"/>
			<path style="fill:#FFFFFF;" d="M320.446,389.402H179.554c-3.476,0-6.294-2.818-6.294-6.294V103.949
				c0-3.476,2.818-6.294,6.294-6.294h140.892c3.476,0,6.294,2.818,6.294,6.294v279.159
				C326.74,386.584,323.922,389.402,320.446,389.402z"/>
			<path style="fill:#DEFCFF;" d="M253.256,147.946c1.277-1.949,0.496-4.929-1.573-6.002s-4.954,0.008-5.811,2.175
				c-1.523-6.164-7.325-11.013-13.661-11.417c-6.337-0.405-12.708,3.666-15.003,9.586c-1.203-3.001-6.162-3.356-7.781-0.557
				c-0.921-3.692-5.699-5.815-9.057-4.024c-3.358,1.791-4.255,6.942-1.702,9.763l-8.688,3.078h72.036L253.256,147.946z"/>
			<path style="fill:#DEFCFF;" d="M173.26,260.223V383.62c0,3.194,2.589,5.783,5.782,5.783h141.915c3.194,0,5.783-2.589,5.783-5.783
				V275.149c-21.041-30.185-51.86-54.978-94.476-45.732C203.986,235.552,185.408,247.068,173.26,260.223z"/>
			
				<text transform="matrix(1 0 0 1 205.4888 298.6924)" style="fill:#263238; font-family:'Montserrat-SemiBold'; font-size:11.0246px;">SCAN QR CODE</text>
			
				<text transform="matrix(1 0 0 1 234.1191 313.2832)" style="fill:#263238; font-family:'Montserrat-SemiBold'; font-size:11.0246px;">HERE</text>
			<path style="fill:#64D0E3;" d="M320.958,97.655H179.042c-3.194,0-5.782,2.589-5.782,5.783v7.512h153.48v-7.512
				C326.74,100.243,324.151,97.655,320.958,97.655z"/>
			<path style="fill:#0F4C75;" d="M291.514,110.949h-83.028c-2.922,0-5.442-2.051-6.035-4.912l-1.738-8.382h98.573l-1.738,8.382
				C296.956,108.898,294.435,110.949,291.514,110.949z"/>
			<g>
				<g>
					<g>
						<path style="fill:#263238;" d="M233.112,200.533h-30.901v-30.901h30.901V200.533z M206.523,196.221h22.277v-22.277h-22.277
							V196.221z"/>
					</g>
					<rect x="211.554" y="178.974" style="fill:#263238;" width="12.216" height="12.217"/>
					<g>
						<path style="fill:#263238;" d="M233.112,265.209h-30.901v-30.901h30.901V265.209z M206.523,260.897h22.277V238.62h-22.277
							V260.897z"/>
					</g>
					<rect x="211.554" y="243.65" style="fill:#263238;" width="12.216" height="12.217"/>
					<g>
						<path style="fill:#263238;" d="M297.788,200.533h-30.901v-30.901h30.901V200.533z M271.199,196.221h22.277v-22.277h-22.277
							V196.221z"/>
					</g>
					<rect x="276.034" y="178.779" style="fill:#263238;" width="12.608" height="12.608"/>
					<rect x="238.004" y="171.788" style="fill:#263238;" width="4.802" height="4.802"/>
					<rect x="242.806" y="176.591" style="fill:#263238;" width="4.802" height="4.802"/>
					<rect x="247.609" y="176.591" style="fill:#263238;" width="4.802" height="4.802"/>
					<rect x="242.806" y="181.393" style="fill:#263238;" width="4.802" height="4.802"/>
					<rect x="238.004" y="190.998" style="fill:#263238;" width="4.802" height="4.802"/>
					<rect x="242.806" y="190.998" style="fill:#263238;" width="4.802" height="4.802"/>
					<rect x="247.609" y="190.998" style="fill:#263238;" width="4.802" height="4.802"/>
					<rect x="252.411" y="190.998" style="fill:#263238;" width="4.802" height="4.802"/>
					<rect x="252.411" y="186.195" style="fill:#263238;" width="4.802" height="4.802"/>
					<rect x="257.213" y="181.393" style="fill:#263238;" width="4.802" height="4.802"/>
					<rect x="252.411" y="171.788" style="fill:#263238;" width="4.802" height="4.802"/>
					<rect x="257.213" y="176.591" style="fill:#263238;" width="4.802" height="4.802"/>
					<rect x="257.213" y="190.998" style="fill:#263238;" width="4.802" height="4.802"/>
					<rect x="257.213" y="195.8" style="fill:#263238;" width="4.802" height="4.802"/>
					<rect x="233.202" y="205.405" style="fill:#263238;" width="4.802" height="4.802"/>
					<rect x="228.399" y="205.405" style="fill:#263238;" width="4.802" height="4.802"/>
					<rect x="223.597" y="205.405" style="fill:#263238;" width="4.802" height="4.802"/>
					<rect x="213.992" y="205.405" style="fill:#263238;" width="4.802" height="4.802"/>
					<rect x="204.387" y="205.405" style="fill:#263238;" width="4.802" height="4.802"/>
					<rect x="213.992" y="219.812" style="fill:#263238;" width="4.802" height="4.802"/>
					<rect x="213.992" y="224.614" style="fill:#263238;" width="4.802" height="4.802"/>
					<rect x="218.794" y="224.614" style="fill:#263238;" width="4.802" height="4.802"/>
					<rect x="223.597" y="224.614" style="fill:#263238;" width="4.802" height="4.802"/>
					<rect x="228.399" y="224.614" style="fill:#263238;" width="4.802" height="4.802"/>
					<rect x="228.399" y="219.812" style="fill:#263238;" width="4.802" height="4.802"/>
					<rect x="228.399" y="215.01" style="fill:#263238;" width="4.802" height="4.802"/>
					<rect x="233.202" y="215.01" style="fill:#263238;" width="4.802" height="4.802"/>
					<rect x="238.004" y="224.614" style="fill:#263238;" width="4.802" height="4.802"/>
					<rect x="238.004" y="219.812" style="fill:#263238;" width="4.802" height="4.802"/>
					<rect x="242.806" y="219.812" style="fill:#263238;" width="4.802" height="4.802"/>
					<rect x="247.609" y="219.812" style="fill:#263238;" width="4.802" height="4.802"/>
					<rect x="252.411" y="219.812" style="fill:#263238;" width="4.802" height="4.802"/>
					<rect x="257.213" y="224.614" style="fill:#263238;" width="4.802" height="4.802"/>
					<rect x="257.213" y="229.417" style="fill:#263238;" width="4.802" height="4.802"/>
					<rect x="262.016" y="234.219" style="fill:#263238;" width="4.802" height="4.802"/>
					<rect x="233.202" y="224.614" style="fill:#263238;" width="4.802" height="4.802"/>
					<rect x="209.19" y="219.812" style="fill:#263238;" width="4.802" height="4.802"/>
					<rect x="218.794" y="210.207" style="fill:#263238;" width="4.802" height="4.802"/>
					<rect x="218.794" y="215.01" style="fill:#263238;" width="4.802" height="4.802"/>
					<rect x="213.992" y="215.01" style="fill:#263238;" width="4.802" height="4.802"/>
					<rect x="209.19" y="215.01" style="fill:#263238;" width="4.802" height="4.802"/>
					<rect x="209.19" y="210.207" style="fill:#263238;" width="4.802" height="4.802"/>
					<rect x="204.387" y="215.01" style="fill:#263238;" width="4.802" height="4.802"/>
					<rect x="238.004" y="186.195" style="fill:#263238;" width="4.802" height="4.802"/>
					<rect x="238.004" y="195.8" style="fill:#263238;" width="4.802" height="4.802"/>
					<rect x="238.004" y="200.602" style="fill:#263238;" width="4.802" height="4.802"/>
					<rect x="238.004" y="205.405" style="fill:#263238;" width="4.802" height="4.802"/>
					<rect x="238.004" y="210.207" style="fill:#263238;" width="4.802" height="4.802"/>
					<rect x="242.806" y="210.207" style="fill:#263238;" width="4.802" height="4.802"/>
					<rect x="247.609" y="210.207" style="fill:#263238;" width="4.802" height="4.802"/>
					<rect x="252.411" y="210.207" style="fill:#263238;" width="4.802" height="4.802"/>
					<rect x="247.609" y="205.405" style="fill:#263238;" width="4.802" height="4.802"/>
					<rect x="257.213" y="205.405" style="fill:#263238;" width="4.802" height="4.802"/>
					<rect x="262.016" y="205.405" style="fill:#263238;" width="4.802" height="4.802"/>
					<rect x="266.818" y="205.405" style="fill:#263238;" width="4.802" height="4.802"/>
					<rect x="271.62" y="205.405" style="fill:#263238;" width="4.802" height="4.802"/>
					<rect x="276.423" y="205.405" style="fill:#263238;" width="4.802" height="4.802"/>
					<rect x="281.225" y="205.405" style="fill:#263238;" width="4.802" height="4.802"/>
					<rect x="281.225" y="210.207" style="fill:#263238;" width="4.802" height="4.802"/>
					<rect x="266.818" y="215.01" style="fill:#263238;" width="4.802" height="4.802"/>
					<rect x="262.016" y="215.01" style="fill:#263238;" width="4.802" height="4.802"/>
					<rect x="262.016" y="210.207" style="fill:#263238;" width="4.802" height="4.802"/>
					<rect x="257.213" y="215.01" style="fill:#263238;" width="4.802" height="4.802"/>
					<rect x="276.423" y="219.812" style="fill:#263238;" width="4.802" height="4.802"/>
					<rect x="276.423" y="224.614" style="fill:#263238;" width="4.802" height="4.802"/>
					<rect x="281.225" y="224.614" style="fill:#263238;" width="4.802" height="4.802"/>
					<rect x="286.028" y="224.614" style="fill:#263238;" width="4.802" height="4.802"/>
					<rect x="286.028" y="229.417" style="fill:#263238;" width="4.802" height="4.802"/>
					<rect x="286.028" y="234.219" style="fill:#263238;" width="4.802" height="4.802"/>
					<rect x="276.423" y="239.021" style="fill:#263238;" width="4.802" height="4.802"/>
					<rect x="276.423" y="253.466" style="fill:#263238;" width="4.802" height="4.802"/>
					<rect x="290.83" y="239.021" style="fill:#263238;" width="4.802" height="4.802"/>
					<rect x="290.83" y="258.231" style="fill:#263238;" width="4.802" height="4.802"/>
					<rect x="271.62" y="258.231" style="fill:#263238;" width="4.802" height="4.802"/>
					<rect x="266.818" y="258.231" style="fill:#263238;" width="4.802" height="4.802"/>
					<rect x="262.016" y="258.231" style="fill:#263238;" width="4.802" height="4.802"/>
					<rect x="257.213" y="258.231" style="fill:#263238;" width="4.802" height="4.802"/>
					<rect x="262.016" y="253.429" style="fill:#263238;" width="4.802" height="4.802"/>
					<rect x="257.213" y="253.429" style="fill:#263238;" width="4.802" height="4.802"/>
					<rect x="262.016" y="248.626" style="fill:#263238;" width="4.802" height="4.802"/>
					<rect x="262.016" y="243.824" style="fill:#263238;" width="4.802" height="4.802"/>
					<rect x="257.213" y="239.021" style="fill:#263238;" width="4.802" height="4.802"/>
					<rect x="252.411" y="239.021" style="fill:#263238;" width="4.802" height="4.802"/>
					<rect x="247.609" y="239.021" style="fill:#263238;" width="4.802" height="4.802"/>
					<rect x="242.806" y="239.021" style="fill:#263238;" width="4.802" height="4.802"/>
					<rect x="252.411" y="243.824" style="fill:#263238;" width="4.802" height="4.802"/>
					<rect x="247.609" y="243.824" style="fill:#263238;" width="4.802" height="4.802"/>
					<rect x="238.004" y="253.429" style="fill:#263238;" width="4.802" height="4.802"/>
					<rect x="238.004" y="234.219" style="fill:#263238;" width="4.802" height="4.802"/>
					<rect x="242.806" y="243.824" style="fill:#263238;" width="4.802" height="4.802"/>
					<rect x="247.609" y="248.626" style="fill:#263238;" width="4.802" height="4.802"/>
					<rect x="242.806" y="248.626" style="fill:#263238;" width="4.802" height="4.802"/>
					<rect x="247.609" y="253.429" style="fill:#263238;" width="4.802" height="4.802"/>
					<rect x="242.806" y="258.231" style="fill:#263238;" width="4.802" height="4.802"/>
					<rect x="252.411" y="234.219" style="fill:#263238;" width="4.802" height="4.802"/>
					<rect x="247.609" y="234.219" style="fill:#263238;" width="4.802" height="4.802"/>
					<rect x="242.806" y="234.219" style="fill:#263238;" width="4.802" height="4.802"/>
					<rect x="247.609" y="229.417" style="fill:#263238;" width="4.802" height="4.802"/>
					<rect x="247.609" y="224.614" style="fill:#263238;" width="4.802" height="4.802"/>
					<rect x="242.806" y="229.417" style="fill:#263238;" width="4.802" height="4.802"/>
					<rect x="238.004" y="239.021" style="fill:#263238;" width="4.802" height="4.802"/>
					<rect x="257.213" y="248.626" style="fill:#263238;" width="4.802" height="4.802"/>
					<rect x="252.411" y="258.231" style="fill:#263238;" width="4.802" height="4.802"/>
					<rect x="266.818" y="239.021" style="fill:#263238;" width="4.802" height="4.802"/>
					<rect x="271.62" y="243.824" style="fill:#263238;" width="4.802" height="4.802"/>
					<rect x="286.028" y="243.824" style="fill:#263238;" width="4.802" height="4.802"/>
					<rect x="286.028" y="248.626" style="fill:#263238;" width="4.802" height="4.802"/>
					<rect x="281.225" y="248.626" style="fill:#263238;" width="4.802" height="4.802"/>
					<rect x="276.423" y="248.626" style="fill:#263238;" width="4.802" height="4.802"/>
					<rect x="271.62" y="248.626" style="fill:#263238;" width="4.802" height="4.802"/>
					<rect x="286.028" y="253.429" style="fill:#263238;" width="4.802" height="4.802"/>
					<rect x="286.028" y="258.231" style="fill:#263238;" width="4.802" height="4.802"/>
					<rect x="276.423" y="229.417" style="fill:#263238;" width="4.802" height="4.802"/>
					<rect x="271.62" y="219.812" style="fill:#263238;" width="4.802" height="4.802"/>
					<rect x="271.62" y="224.614" style="fill:#263238;" width="4.802" height="4.802"/>
					<rect x="271.62" y="229.417" style="fill:#263238;" width="4.802" height="4.802"/>
					<rect x="266.818" y="234.219" style="fill:#263238;" width="4.802" height="4.802"/>
					<rect x="266.818" y="224.614" style="fill:#263238;" width="4.802" height="4.802"/>
					<rect x="266.818" y="229.417" style="fill:#263238;" width="4.802" height="4.802"/>
					<rect x="276.423" y="215.01" style="fill:#263238;" width="4.802" height="4.802"/>
					<rect x="276.423" y="234.219" style="fill:#263238;" width="4.802" height="4.802"/>
					<rect x="281.225" y="234.219" style="fill:#263238;" width="4.802" height="4.802"/>
					<rect x="286.028" y="210.207" style="fill:#263238;" width="4.802" height="4.802"/>
					<rect x="286.028" y="215.01" style="fill:#263238;" width="4.802" height="4.802"/>
					<rect x="290.83" y="205.405" style="fill:#263238;" width="4.802" height="4.802"/>
					<rect x="290.83" y="219.812" style="fill:#263238;" width="4.802" height="4.802"/>
					<rect x="247.609" y="200.602" style="fill:#263238;" width="4.802" height="4.802"/>
					<rect x="252.411" y="200.602" style="fill:#263238;" width="4.802" height="4.802"/>
				</g>
				<g>
					<g>
						<polygon style="fill:#64D0E3;" points="196.902,178.727 192.931,178.727 192.931,162.292 209.366,162.292 209.366,166.262 
							196.902,166.262 						"/>
					</g>
					<g>
						<polygon style="fill:#64D0E3;" points="209.366,272.549 192.931,272.549 192.931,256.114 196.902,256.114 196.902,268.578 
							209.366,268.578 						"/>
					</g>
					<g>
						<polygon style="fill:#64D0E3;" points="307.069,272.549 290.634,272.549 290.634,268.578 303.098,268.578 303.098,256.114 
							307.069,256.114 						"/>
					</g>
					<g>
						<polygon style="fill:#64D0E3;" points="307.069,178.727 303.098,178.727 303.098,166.262 290.634,166.262 290.634,162.292 
							307.069,162.292 						"/>
					</g>
				</g>
			</g>
			<g>
				<g>
					<path style="fill:#FFFFFF;" d="M321.634,106.312h-7.403v-4.02h7.403V106.312z M314.609,105.993h6.645v-3.382h-6.645V105.993z"
						/>
				</g>
				<rect x="314.994" y="103.039" style="fill:#FFFFFF;" width="1.189" height="2.526"/>
				<rect x="316.54" y="103.039" style="fill:#FFFFFF;" width="1.189" height="2.526"/>
				<rect x="318.085" y="103.039" style="fill:#FFFFFF;" width="1.189" height="2.526"/>
				<rect x="321.444" y="103.039" style="fill:#FFFFFF;" width="1.189" height="2.526"/>
			</g>
			<g>
				<rect x="303.408" y="104.302" style="fill:#FFFFFF;" width="1.022" height="2.01"/>
				<rect x="305.043" y="103.689" style="fill:#FFFFFF;" width="1.022" height="2.623"/>
				<rect x="306.678" y="102.958" style="fill:#FFFFFF;" width="1.022" height="3.353"/>
				<rect x="308.313" y="102.292" style="fill:#FFFFFF;" width="1.022" height="4.02"/>
			</g>
			
				<text transform="matrix(1 0 0 1 178.7158 105.5645)" style="fill:#FFFFFF; font-family:'Montserrat-SemiBold'; font-size:3.6296px;">04.20 PM</text>
			<path style="fill:#FFFFFF;" d="M270.376,105.565h-40.732c-0.904,0-1.636-0.733-1.636-1.636l0,0c0-0.904,0.733-1.636,1.636-1.636
				h40.732c0.904,0,1.636,0.733,1.636,1.636l0,0C272.012,104.832,271.28,105.565,270.376,105.565z"/>
			<path style="fill:#FFFFFF;" d="M282.108,103.928c0,0.904-0.733,1.636-1.636,1.636c-0.904,0-1.637-0.733-1.637-1.636
				c0-0.904,0.733-1.636,1.637-1.636C281.375,102.292,282.108,103.024,282.108,103.928z"/>
			<circle style="fill:#FFFFFF;" cx="285.845" cy="103.928" r="1.636"/>
		</g>
		<g>
			<path style="fill:#A0D0F0;" d="M384.581,326.823l-4.061,73.089l-18.863,10.865h32.697l-1.797-12.603l5.715-35.962
				c1.528-9.615,2.296-19.365,2.296-29.134v-16.173L384.581,326.823z"/>
			<polygon style="fill:#4CBFD4;" points="393.665,391.193 381.112,389.889 380.825,394.425 378.864,389.889 375.621,391.267 
				380.618,398.155 380.52,399.911 361.657,410.776 394.354,410.776 392.556,398.173 			"/>
			<path style="fill:#BBE1FA;" d="M361.694,326.823l-4.061,73.089l-18.864,10.865h32.697l-1.797-12.603l5.715-35.962
				c1.528-9.615,2.296-19.365,2.296-29.134v-16.173L361.694,326.823z"/>
			<path style="fill:#64D0E3;" d="M399.704,243.188c1.098-0.126,3.84,8.788,4.165,9.756c1.662,4.949,2.819,10.161,2.34,15.409
				c-0.439,4.814-2.266,9.477-2.257,14.337c0.008,4.311,1.965,17.036,2.75,21.269c1.106,5.964,2.427,11.906,3.964,17.775
				c0,0-14.914,11.601-51.411,5.737l2.862-79.913C362.116,247.556,399.464,243.216,399.704,243.188z"/>
			<path style="opacity:0.7;fill:#64D0E3;" d="M381.547,281.486c-1.484,0.527-3.308,0.845-4.491-0.193
				c-1.197-1.05-1.07-3.061-0.132-4.348c0.938-1.286,2.452-2.006,3.927-2.606c5.453-2.219,11.282-3.514,17.162-3.812
				c1.125-0.057,2.285-0.072,3.337,0.33c1.052,0.402,1.981,1.317,2.077,2.439c0.092,1.071-0.592,2.089-1.477,2.699
				c-0.885,0.61-1.951,0.888-2.992,1.156C393.241,278.624,387.106,279.563,381.547,281.486z"/>
			<path style="fill:#0F4C75;" d="M364.632,186.058l-8.006,3.652c-5.719,2.609-9.913,7.711-11.365,13.826l-6.047,25.452
				l-4.367-12.737c0,0-3.478-3.376-7.944,2.837l7.749,28.054c0,0,4.66,6.796,11.067,5.048c6.407-1.747,10.043-24.131,10.043-24.131
				s2.844,11.634,6.355,19.498c0,0,19.53,2.039,37.588-4.369c0,0-3.601-8.495-1.853-24.842c1.747-16.347-7.244-30.616-7.244-30.616
				L364.632,186.058z"/>
			<path style="fill:#FAC4BB;" d="M377.658,215.493c0.065,0.137,0.13,0.273,0.195,0.409c1.299,2.71,3.327,5.308,6.205,6.174
				c3.164,0.953,5.671-1.22,6.23-4.279c0.281-1.534,0.131-3.11-0.019-4.662c-0.693-7.154-1.386-14.309-2.079-21.463
				c-0.303-3.126-0.843-6.669-3.451-8.418c-1.737-1.165-3.974-1.211-6.061-1.097c-2.295,0.125-4.695,0.436-6.566,1.771
				c-4.407,3.143-1.781,10.199-0.703,14.341C372.933,204.126,375.063,210.011,377.658,215.493z"/>
			<path style="fill:#FAC4BB;" d="M355.016,231.947l-0.064-0.036c-9.158-1.93-14.727-7.18-14.727-7.181l-1.011,4.257l-4.367-12.737
				c0,0-3.478-3.376-7.944,2.837l7.749,28.054c0,0,4.66,6.796,11.067,5.048C350.436,250.903,353.648,238.436,355.016,231.947z"/>
			<path style="fill:#FAC4BB;" d="M363.921,161.252c0,0-4.842,0.661-4.667-3.905c0,0-4.805,2.572-6.964,0
				c0,0-0.193,1.617-0.395,4.098c-0.101,1.295-0.211,2.811-0.303,4.456c-0.083,1.645-0.156,3.418-0.165,5.2
				c-0.083,7.23,0.643,14.69,3.859,15.095c6.312,0.809,8.967-2.49,8.967-2.49l-0.009-0.009c-0.129-0.285-3.721-7.782,1.001-13.974
				C370.068,163.411,363.921,161.252,363.921,161.252z"/>
			<g>
				<path style="fill:#263238;" d="M340.698,222.737c-0.168,2.415-0.635,4.76-1.17,7.089c-0.566,2.321-1.205,4.625-2.143,6.858
					c0.166-2.416,0.632-4.761,1.17-7.089C339.124,227.274,339.763,224.97,340.698,222.737z"/>
			</g>
			<path style="fill:#0F4C75;" d="M339.187,206.742l-10.347,3.087c-1.09,0.325-2.237-0.295-2.561-1.384l-7.284-24.416
				c-0.325-1.09,0.295-2.236,1.384-2.562l10.347-3.087c1.09-0.325,2.236,0.295,2.561,1.384l7.284,24.416
				C340.896,205.27,340.276,206.417,339.187,206.742z"/>
			<path style="fill:#FFFFFF;" d="M337.826,203.484l-9.633,2.874c-0.333,0.099-0.682-0.09-0.782-0.422l-6.27-21.015
				c-0.099-0.333,0.09-0.683,0.422-0.782l9.633-2.874c0.333-0.099,0.683,0.09,0.782,0.423l6.27,21.015
				C338.347,203.035,338.158,203.385,337.826,203.484z"/>
			<path style="fill:#FAC4BB;" d="M326.902,219.088l-4.982-16.059c0,0,9.565-1.211,10.052-6.692c0,0,3.729,5.765-2.621,8.106
				c0,0,6.144,1.918,5.496,11.808L326.902,219.088z"/>
			<polygon style="fill:#64D0E3;" points="371.074,389.333 358.225,387.7 358.049,392.43 354.95,387.7 350.735,389.159 
				357.783,397.204 357.633,399.911 338.77,410.776 371.466,410.776 369.669,398.173 			"/>
			<g>
				<path style="fill:#FFFFFF;" d="M354.601,233.836c0.239-3.375,0.777-6.702,1.387-10.012c0.64-3.304,1.355-6.595,2.367-9.816
					c-0.239,3.389-0.776,6.707-1.387,10.012C356.327,227.319,355.613,230.602,354.601,233.836z"/>
			</g>
			<g>
				<path style="fill:#0F4C75;" d="M361.758,247.658c-1.97,3.046-4.075,6.162-4.743,9.725c-0.322,1.757-0.296,3.598,0.271,5.272
					c0.55,1.681,1.674,3.116,3.118,4.126c2.926,2.019,6.595,2.715,10.169,3.05c3.602,0.339,7.242,0.228,10.818-0.296
					c3.579-0.497,7.103-1.414,10.46-2.756c3.349-1.338,6.539-3.149,9.111-5.65c2.534-2.482,4.387-5.867,4.39-9.47
					c0.02-1.782-0.461-3.584-1.482-5.072c-1.012-1.495-2.516-2.626-4.165-3.4c1.691,0.674,3.279,1.74,4.381,3.246
					c1.116,1.489,1.702,3.354,1.757,5.219c0.098,3.78-1.757,7.364-4.334,10.019c-2.598,2.698-5.917,4.543-9.314,5.952
					c-3.418,1.398-7.008,2.368-10.662,2.902c-3.658,0.505-7.374,0.587-11.046,0.211c-1.832-0.19-3.671-0.462-5.465-0.965
					c-1.789-0.5-3.551-1.232-5.069-2.372c-1.524-1.119-2.723-2.732-3.264-4.551c-0.56-1.813-0.539-3.747-0.15-5.562
					C357.402,253.628,359.607,250.581,361.758,247.658z"/>
			</g>
			<g>
				<path style="fill:#0F4C75;" d="M362.116,247.556c-0.9,0.911-1.526,2.08-1.674,3.329c-0.151,1.249,0.1,2.509,0.526,3.684
					c0.787,2.404,2.536,4.345,4.655,5.653c2.121,1.315,4.552,2.078,7.043,2.375c2.492,0.302,5.035,0.19,7.529-0.188
					c4.987-0.686,9.875-2.55,13.774-5.748c3.916-3.176,5.884-8.371,5.734-13.474c0.269,2.55-0.027,5.177-0.883,7.632
					c-0.88,2.446-2.381,4.688-4.351,6.426c-3.949,3.448-9.016,5.371-14.131,6.152c-2.571,0.358-5.195,0.445-7.788,0.1
					c-2.578-0.35-5.166-1.138-7.345-2.634c-2.178-1.446-3.984-3.607-4.7-6.141c-0.372-1.248-0.559-2.584-0.324-3.879
					C360.405,249.543,361.145,248.386,362.116,247.556z"/>
			</g>
			<path style="fill:#64D0E3;" d="M385.015,167.233c0,0,8.14-6.808,1.001-22.426c-7.138-15.618-23.758-7.313-23.758-7.313
				s-10.299-8.636-17.786,1.994c-7.478,10.639,2.168,16.62,2.168,16.62s-2.324,0.827-2.159,5.806
				c0.009,0.367,0.064,0.698,0.138,1.001c0.147,0.551,0.386,1.001,0.707,1.378c0.597,0.707,1.452,1.13,2.333,1.378
				c1.893,0.524,3.932,0.23,3.932,0.23c0-0.074,0.009-0.156,0.009-0.23c0.027-0.469,0.055-0.928,0.092-1.378
				c0.028-0.478,0.055-0.937,0.092-1.378c0.239-3.289,0.505-5.568,0.505-5.568c2.159,2.572,6.964,0,6.964,0
				c-0.175,4.566,4.667,3.905,4.667,3.905s1.378,0.487,2.315,1.663c0.312,0.386,0.57,0.836,0.717,1.378
				c0.11,0.404,0.165,0.864,0.119,1.378c-0.083,1.102-0.597,2.435-1.828,4.052c-4.722,6.192-1.13,13.689-1.001,13.974l0.009,0.009
				c0.9,2.49,2.6,6.762,4.281,10.887c3.124,7.662,12.449,10.786,19.413,6.312c6.128-3.951,8.039-8.59,8.039-8.59
				C386.687,183.513,385.015,167.233,385.015,167.233z"/>
			<path style="fill:#0F4C75;" d="M351.895,163.604c-0.037,0.459-0.073,0.956-0.11,1.47c-0.037,0.441-0.064,0.9-0.092,1.378
				c-0.037,0.45-0.064,0.91-0.083,1.378c-0.009,0.074-0.018,0.156-0.018,0.23c-0.083,1.645-0.156,3.418-0.165,5.2h-2.15
				c-3.996,0-5.632-2.83-6.302-5.43c-0.119-0.478-0.211-0.946-0.266-1.378c-0.083-0.505-0.119-0.974-0.147-1.378
				c-0.046-0.882-0.009-1.47-0.009-1.47H351.895z"/>
			<path style="fill:#0F4C75;" d="M366.953,164.293H339.71c-0.083-0.505-0.119-0.974-0.147-1.378h26.673
				C366.549,163.301,366.806,163.751,366.953,164.293z"/>
			<g>
				<path style="fill:#1B262C;" d="M401.643,276.643c-3.16,0.889-6.32,1.627-9.474,2.408c-3.162,0.752-6.293,1.565-9.495,2.294
					c2.939-1.475,6.082-2.481,9.259-3.265C395.119,277.324,398.356,276.756,401.643,276.643z"/>
			</g>
		</g>
		<g>
			<path style="fill:#F2AFA5;" d="M126.888,161.758c0,0-10.75-0.092-18.022,14.041c-7.826,15.211-23.429,38.777-15.195,48.962
				c8.235,10.185,24.087,0,24.087,0l13.806-39.235L126.888,161.758z"/>
			<path style="fill:#4CBFD4;" d="M131.564,185.527l-4.676-23.769c0,0-10.75-0.092-18.022,14.041
				c-3.625,7.046-8.915,15.883-12.735,24.353c3.259,1.441,8.849,4.312,11.006,7.842c2.505,4.099,11.813,2.471,16.641-0.339
				L131.564,185.527z"/>
			<path style="fill:#0F4C75;" d="M99.953,246.809L83.724,304.38c-0.693,5.068,1.517,10.095,5.72,13.01l63.33,42.429l13.112,32.858
				l0.041-49.719l-11.424-0.432l-38.196-48.909l34.206-19.855l6.019-13.331L99.953,246.809z"/>
			<polygon style="fill:#F2AFA5;" points="148.166,333.776 137.843,350.795 152.774,359.819 165.886,392.677 165.927,342.958 
				154.503,342.526 			"/>
			<path style="fill:#1C6BA1;" d="M156.532,260.43l-1.645,7.381c-1.626,7.294-2.834,8.767-5.513,15.744L105.3,395.156
				c0,0-5.298,6.444-17.62-2.635l22.453-145.089C110.133,247.431,135.571,240.148,156.532,260.43z"/>
			<path style="fill:#FAC4BB;" d="M87.68,392.52c12.322,9.079,17.62,2.635,17.62,2.635l3.237-8.196l-19.142-5.517L87.68,392.52z"/>
			<path style="fill:#64D0E3;" d="M172.755,170.502c0,0-17.366-12.157-40.417-10.061s-25.146,41.91-25.146,41.91l-7.24,44.458
				c0,0,20.955,12.573,56.579,13.621C156.532,260.43,178.596,189.993,172.755,170.502z"/>
			<path style="fill:#FFFFFF;" d="M109.215,189.015c-1.434,6.215-1.886,11.392-1.993,12.895c14.458,6.033,30.205,8.966,45.867,8.511
				l2.632-12.628C139.828,198.255,123.847,195.23,109.215,189.015z"/>
			<path style="fill:#FAC4BB;" d="M133.042,172.098c0.891,0.969,2.507,1.509,3.873,1.639c5.181,0.492,10.532-1.387,14.232-5.056
				c0.683-0.677,1.321-1.428,1.677-2.321c0.491-1.233,0.331-2.72-0.781-3.558c-0.643-0.484-1.445-0.707-2.238-0.845
				c-4.167-0.727-8.386,0.626-12.011,2.622c-1.88,1.035-4.145,2.555-5.097,4.554C132.107,170.375,132.365,171.361,133.042,172.098z"
				/>
			<path style="fill:#FAC4BB;" d="M150.757,154.723v9.403c0,0-4.095,5.737-12.454,4.49l-1.332-11.511L150.757,154.723z"/>
			<path style="fill:#0F4C75;" d="M115.766,224.048l-13.497,3.225c-0.654,0.156-1.332-0.147-1.652-0.739l-14.849-27.498
				c-0.464-0.858,0.013-1.923,0.962-2.15l13.497-3.225c0.654-0.156,1.332,0.147,1.652,0.739l14.849,27.497
				C117.191,222.756,116.715,223.821,115.766,224.048z"/>
			<path style="fill:#64D0E3;" d="M116.421,141.452c0,0-7.828-2.371-6.215-10.566c1.613-8.195,12.791-7.747,12.791-7.747
				s12.346-8.536,22.768-2.979c0,0,11.693-1.404,11.793,12.586c0.101,13.99-4.015,16.835-4.015,16.835L116.421,141.452z"/>
			<path style="fill:#FAC4BB;" d="M116.541,143.815c0.24,4.73,0.914,9.433,2.103,14.018c1.616,6.233,4.358,13.011,8.564,12.351
				c7.647-1.199,18.62-4.797,21.639-13.266c0,0,6.241-0.925,6.448-8.845c0.207-7.921-7.166-5.316-7.166-5.316
				s-0.755,5.109-0.653,7.132c0,0-1.13-10.287-4.49-12.551l1.646-3.532c0,0-7.165-5.316-16.287-1.203
				c-9.122,4.113-12.207,3.255-12.207,3.255L116.541,143.815z"/>
			<path style="fill:#FAC4BB;" d="M162.724,166.727c0,0,16.764,0,15.716,19.907c-0.68,12.921-6.231,38.309-8.793,48.265
				c-1.319,5.126-6.532,8.213-11.656,6.886c-8.551-2.214-21.995-6.615-35.816-14.781c0,0-9.43,9.43-17.812,3.143
				c0,0-9.43-1.048-8.382-9.43c0,0-3.143-1.048-2.095-6.287c0,0,17.566,3.428,17.006-3.339c0,0,9.188-3.995,13.379,3.339
				c0,0,13.621,1.048,20.955,2.096l7.02-38.274C152.246,178.253,153.294,165.68,162.724,166.727z"/>
			<g>
				<path style="fill:#263238;" d="M136.521,215.658c3.622-0.275,7.263,0.044,10.839,0.686c1.784,0.352,3.553,0.798,5.277,1.385
					c1.72,0.601,3.387,1.369,4.925,2.331c-1.71-0.612-3.425-1.117-5.15-1.583c-1.738-0.425-3.479-0.821-5.237-1.151
					c-1.757-0.335-3.526-0.617-5.3-0.893L136.521,215.658z"/>
			</g>
			<path style="fill:#64D0E3;" d="M178.44,186.635c1.048-19.908-15.716-19.908-15.716-19.908
				c-9.43-1.048-10.478,11.525-10.478,11.525l-5.455,29.742l0,0c0,0,15.848,1.095,26.752,9.865
				C175.798,207.033,178.025,194.516,178.44,186.635z"/>
			<path style="fill:#FFFFFF;" d="M100.466,199.32c0,0.795-0.644,1.439-1.44,1.439c-0.795,0-1.44-0.645-1.44-1.439
				c0-0.795,0.645-1.44,1.44-1.44C99.822,197.88,100.466,198.525,100.466,199.32z"/>
			<path style="fill:#55BBCF;" d="M146.723,160.729c2.693-4.273-0.471-17.171-0.499-17.286c-0.001-0.002-0.001-0.003-0.001-0.005
				c-0.002,0.003-9.875,12.178-12.448,12.907c-2.572,0.729-5.615-1.054-7.723-0.486c-2.108,0.567-2.999,2.189-4.377,2.513
				c-1.378,0.324-3.031-0.538-3.031-0.538c1.616,6.233,4.358,13.011,8.564,12.351C133.586,169.184,142.263,166.502,146.723,160.729z
				"/>
			<polygon style="fill:#FFFFFF;" points="125.133,160.668 129.656,159.533 128.322,163.046 			"/>
			<g>
				<path style="fill:#263238;" d="M125.403,150.636c0.424,1.087,0.627,2.238,0.719,3.394c0.03,0.58,0.04,1.164-0.021,1.745
					c-0.063,0.58-0.165,1.16-0.373,1.705c0.02-1.162-0.025-2.281-0.104-3.417C125.553,152.929,125.446,151.798,125.403,150.636z"/>
			</g>
			<path style="fill:#263238;" d="M132.618,149.535c0,0.895-0.726,1.621-1.621,1.621s-1.621-0.726-1.621-1.621
				s0.726-1.621,1.621-1.621S132.618,148.64,132.618,149.535z"/>
			<circle style="fill:#263238;" cx="121.35" cy="151.886" r="1.621"/>
			<g>
				<path style="fill:#263238;" d="M126.944,142.518c0.662-0.735,1.635-1.127,2.61-1.24c0.977-0.098,2.012,0.078,2.814,0.657
					c-0.978-0.007-1.849-0.014-2.734,0.088C128.748,142.11,127.897,142.302,126.944,142.518z"/>
			</g>
			<g>
				<path style="fill:#263238;" d="M120.967,143.343c-0.699,0.154-1.242,0.312-1.783,0.554c-0.544,0.236-1.026,0.528-1.614,0.938
					c0.076-0.733,0.651-1.332,1.313-1.624C119.546,142.923,120.376,142.905,120.967,143.343z"/>
			</g>
			<g>
				<path style="fill:#263238;" d="M151.811,145.986c-0.179,1.004-0.393,1.909-0.532,2.844c-0.157,0.932-0.234,1.858-0.378,2.869
					c-0.446-0.926-0.513-1.984-0.363-2.986C150.708,147.712,151.1,146.729,151.811,145.986z"/>
			</g>
			<path style="fill:#73B3DE;" d="M89.195,383.498c2.719,1.239,9.842,4.123,18.656,4.859c0.759,0.063,1.469-0.392,1.749-1.1
				l0.746-1.888c0.403-1.021-0.222-2.157-1.303-2.353c-3.507-0.633-10.899-2.172-18.155-4.962c-1.033-0.397-2.169,0.265-2.338,1.359
				l-0.346,2.236C88.084,382.419,88.486,383.175,89.195,383.498z"/>
			<path style="fill:#3776A1;" d="M139.947,351.997c2.15-2.075,7.446-7.644,11.363-15.574c0.337-0.683,0.174-1.51-0.382-2.03
				l-1.483-1.386c-0.802-0.75-2.089-0.585-2.666,0.349c-1.876,3.03-6.018,9.343-11.275,15.07c-0.749,0.815-0.549,2.115,0.407,2.673
				l1.953,1.142C138.536,352.634,139.386,352.538,139.947,351.997z"/>
			<path style="fill:#4CBFD4;" d="M152.774,359.819h-9.515c0,0,0.865-0.632,4.758-7.017l4.758,2.478l1.729-12.754l11.424,0.432
				l-0.041,49.719L152.774,359.819z"/>
			<polygon style="fill:#64D0E3;" points="87.68,392.52 86.385,385.7 94.599,388.363 92.051,393.174 105.3,395.156 105.3,410.776 
				55.04,410.776 			"/>
			<path style="fill:#1B262C;" d="M123.604,217.973l0.614-3.264c0.133-0.707,0.786-1.194,1.502-1.12l1.405,0.145
				c0.843,0.087,1.41,0.904,1.197,1.724l-3.436,13.232c-0.222,0.855-1.178,1.286-1.966,0.885l-0.846-0.431
				c-0.568-0.289-0.865-0.928-0.72-1.548L123.604,217.973z"/>
			<path style="fill:#FFFFFF;" d="M127.801,221.206c0,1.848-1.499,3.347-3.347,3.347c-1.848,0-3.347-1.499-3.347-3.347
				c0-1.848,1.499-3.347,3.347-3.347C126.302,217.859,127.801,219.358,127.801,221.206z"/>
			<g>
				<path style="fill:#263238;" d="M146.791,207.995c0.366-3.946,1.029-7.835,1.764-11.709c0.765-3.869,1.605-7.723,2.745-11.519
					c-0.363,3.947-1.026,7.835-1.764,11.709C148.769,200.344,147.929,204.198,146.791,207.995z"/>
			</g>
		</g>
		<path style="fill:#DEFCFF;" d="M326.74,138.887v-9.831c-0.715-0.522-1.595-0.815-2.478-0.724
			c-1.866,0.192-3.404,2.029-3.265,3.899c-0.983-4.263-5.761-7.244-10.022-6.254c-4.261,0.99-7.234,5.773-6.236,10.033
			l-14.668,2.877H326.74z"/>
	</g>
</g>
</svg>
