<svg xmlns="http://www.w3.org/2000/svg" viewBox="0 0 2973.09 308.32"><defs><style>.cls-1{fill:#6021a0;}.cls-2{fill:#03bbf1;}.cls-3{fill:#042d71;}.cls-4{fill:#032c71;}.cls-5{fill:#04bbf1;}.cls-6{fill:#64676c;}.cls-7{fill:#65676d;}.cls-8{fill:#e74637;}.cls-9{fill:#38a955;}.cls-10{fill:#4687f4;}.cls-11{fill:#6023a0;}.cls-12{fill:#6226a2;}.cls-13{fill:#f9bb0c;}</style></defs><g id="Layer_2" data-name="Layer 2"><g id="Layer_1-2" data-name="Layer 1"><path class="cls-1" d="M129.78,23.46A130,130,0,1,1,0,152.87,129.77,129.77,0,0,1,129.78,23.46Zm12.73,180.72c0,7.71,0,15.18,0,22.64.05,6.24,2.56,9.31,8.51,11.32,2.8.94,5.59.68,8.39.7,8.07,0,9-.87,9-8.75,0-31.64.06-63.28-.07-94.92,0-3.76.75-5.49,4.89-5.09,3.63.36,7.32,0,11,.08,3.15.05,4.62-1.34,4.39-4.54-.11-1.49,0-3,0-4.5-.06-7.5-3.41-11-10.93-11.11-4.16-.08-8.33-.14-12.49,0a6.36,6.36,0,0,1-5.55-2.55c-12.2-14.08-24.56-28-36.68-42.16a14.91,14.91,0,0,0-13.63-5.56c-5,.46-9.64,2.46-14.35,4-5,1.69-5.52,3.59-1.71,7.26,7.79,7.5,15.88,14.7,23.48,22.39,5.53,5.61,10.46,11.81,15.29,17.32h-3.87c-18.82,0-37.64.11-56.45-.08-4.81,0-6.81,1.72-6.4,6.43.17,2,0,4,.34,6a8.94,8.94,0,0,0,8.92,7.79,36.3,36.3,0,0,0,6,0c3.59-.44,4.39,1.07,4.42,4.48.09,12.31-.5,24.62.5,36.93,2,24.14,18.73,37.89,42.67,34.91C132.92,206.6,137.42,204.93,142.51,204.18Z"/><path class="cls-2" d="M1791.28,75.93c7.53-5.33,15.61-9.21,24.82-10.63,16.6-2.55,31.27,1.65,44,12.32,2.71,2.27,4.16,2.38,7,.1,22.88-18.54,51.17-17.86,72.82,2,10.47,9.59,16.15,21.89,16.2,36.16.19,49.81.08,99.62.07,149.43,0,8.57-2.25,10.83-10.87,10.86-10.82,0-21.65.16-32.47,0-6.39-.1-8.52-2.4-8.86-8.78-.11-2,0-4,0-6,0-42.65-.31-85.3.15-127.94.18-16.69-13.55-19.15-24-15-5.3,2.08-7.33,7.33-7.32,13.1q0,32.24,0,64.47,0,35.24,0,70.47c0,8.09-2,10.19-9.91,10.23-10.66,0-21.33.06-32,0-7.47-.05-10-2.49-10-9.84q-.13-67.71-.17-135.44c0-7-3.31-12.13-8.69-13.55-8.77-2.31-16.37-.07-20.18,5.64-1.84,2.76-1.57,5.71-1.57,8.66q0,66,0,131.94c0,9.84-2.18,12.2-11.79,12.24-10.66.05-21.31-.05-32-.18-5.91-.08-8-2.16-8.45-8.13-.09-1.33,0-2.66,0-4V78.09c0-9.93,2-11.93,12-11.94h26.49C1787.2,66.15,1787.29,66.21,1791.28,75.93Z"/><path class="cls-3" d="M1436.33,186.43q0,33.47,0,66.95c0,14.4-8.23,22.75-22.5,22.77-21.82,0-43.64.08-65.46,0-27.85-.11-47.36-18.73-48.34-46.57-.53-15-.59-30-.18-44.95.76-27.85,19.55-47.08,47.82-49.14,8.62-.63,17.3-.34,26-.43,7.17-.07,9.55-2.27,9.61-9,.08-7.17-2.6-10-9.85-10-14-.07-28,0-42,0-8.16,0-10.63-2.55-10.65-10.82,0-9.82,0-19.65,0-29.48,0-5.51,2.72-8.8,8-8.74,21.3.21,42.68-1.57,63.89,1,19,2.31,33.63,11.29,40.22,30.39a67.71,67.71,0,0,1,3.41,22.11Q1436.35,153.45,1436.33,186.43Zm-83.77,19.9c0,4.83-.11,9.67,0,14.49.15,5.28,3.05,8.49,8.3,8.79a125,125,0,0,0,15,0c4.9-.31,8-3.55,8.15-8.49q.3-14.49,0-29c-.09-5.05-3-8.05-8.12-8.35a141.41,141.41,0,0,0-15-.06c-5.35.26-8.18,3.28-8.34,8.65C1352.44,197,1352.56,201.66,1352.56,206.33Z"/><path class="cls-3" d="M1590.29,151.84q0,35.49,0,71c0,32.88-21.35,54.3-54.08,54.32q-27.49,0-55,0c-8,0-10.58-2.52-10.61-10.36,0-10.33-.07-20.67,0-31,.08-8.17,2.41-10.39,10.47-10.44,16-.1,32,0,48-.4,6.53-.14,9.67-3.4,9.45-8.46s-3.8-7.69-10.24-7.88c-10.49-.31-21,1-31.44-.87-25.78-4.6-42-24.53-42.26-52.29-.26-26.16-.09-52.32,0-78.48,0-7.37,3-10.27,10.4-10.32,10.16-.06,20.33,0,30.49,0,8.67,0,11.42,2.63,11.45,11.32.08,21.16,0,42.32,0,63.48,0,14.34,1,15.31,15.31,15.31,15.07,0,16.07-1,16.08-16.22q0-31.72,0-63.45c0-7.78,2.64-10.4,10.55-10.43q15-.06,30,0c8.8,0,11.41,2.6,11.42,11.24Q1590.3,114.85,1590.29,151.84Z"/><path class="cls-4" d="M1152.76,172q0-48,0-95.92c0-6.22,2.56-9.35,8.41-9.36,27,0,54-.57,80.93.37,27.36,1,45.2,20.22,45.56,47.61.22,17.49.27,35,0,52.45-.46,28.14-20.35,47.54-48.38,47.59-9.83,0-19.66.16-29.48-.08-3.85-.09-5.21.93-5.15,5,.24,15.32.11,30.64.09,46,0,8.78-2.4,11.11-11.29,11.11-10.66,0-21.31,0-32,0-6.26,0-8.7-2.49-8.71-8.81Q1152.74,219.93,1152.76,172Zm52-31.45c0,6,.2,12-.08,18-.17,3.64,1.21,4.59,4.59,4.43,5.82-.29,11.65-.14,17.47-.34,5.4-.19,8.66-3.39,8.75-8.82.15-8.65.13-17.31,0-26-.08-5.66-3.37-8.86-9.14-9-6-.14-12,.08-18-.08-2.89-.08-3.75,1.06-3.68,3.81C1204.84,128.53,1204.74,134.52,1204.74,140.52Z"/><path class="cls-5" d="M1639.26,195.21c0-23.48-.14-47,.11-70.45.05-4.93-1.51-6.43-6.25-6.07a122.88,122.88,0,0,1-14.49,0c-5.6-.25-8.25-2.83-8.32-8.43q-.24-17.48,0-35c.08-5.81,3.15-9,9.1-8.87,19.51.49,33.5-8.3,43.7-24.48,4-6.3,8.85-12,16.21-14.85,6.24-2.44,11.16.55,11.25,7.26.12,9.33.14,18.66,0,28,0,3.06,1,4.13,4,4,4.83-.18,9.67-.12,14.5,0,6.69.12,9.71,3.13,9.74,9.79q.09,16.5,0,33c0,7-2.52,9.48-9.71,9.61-4.5.08-9,.2-13.49,0-3.66-.18-5,1.09-4.91,4.86.19,13.32.07,26.65.07,40V267c0,9-2,11-11.18,11q-14.49,0-29,0c-8.61,0-11.23-2.56-11.31-11.31-.11-10.66,0-21.32,0-32Z"/><path class="cls-6" d="M2531.25,129.91c0-35.31.07-70.62-.08-105.92,0-4.4.87-6.07,5.71-6,24.82.26,49.64,0,74.46.17,33,.24,61.71,24.65,67.12,56.75s-15.47,64.86-46.86,73.83A83,83,0,0,1,2608,152c-14-.13-28,.1-42-.12-4-.07-5,1.3-5,5.15.14,26.65,0,53.3.16,79.95,0,4.53-1.15,6.27-5.87,6a151.92,151.92,0,0,0-18.48,0c-4.5.29-5.66-1.28-5.61-5.63.21-18,.08-36,.08-54Zm29.43-45.13c0,11.16.17,22.33-.08,33.48-.1,4.23,1,5.92,5.53,5.83,14.33-.27,28.66-.13,43-.1a44.34,44.34,0,0,0,13.28-1.94c15.74-4.87,28.13-22.63,26.89-38.73-1.38-18-15.38-34.33-32.3-36.44-17.57-2.19-35.28-.48-52.92-.89-3.53-.08-3.39,2.38-3.38,4.8Q2560.71,67.79,2560.68,84.78Z"/><path class="cls-7" d="M2785.59,222.94c-4.5,5.07-8.84,10.24-14.22,14.48-23.15,18.21-69.38,13.72-87.4-18.18-15.63-27.68-1.45-61.94,30-71.8,23-7.2,45.94-6.8,68.41,2.43,3.76,1.54,4.49.66,4.52-3.1.18-19.13-16.45-35.56-37-36.54-15.55-.74-28.46,4.49-38.19,16.73-2.31,2.91-4.05,3.08-7,1.15q-9-5.93-18.22-11.35c-3.16-1.85-3.19-3.41-1-6.19,12.13-15.36,28.19-23.76,47.3-26,14.79-1.7,29.58-1.11,43.82,4.36,18.93,7.26,31.18,20.51,36.25,40.15a75.94,75.94,0,0,1,2.3,19.28c-.1,29.64-.14,59.29.05,88.93,0,4.39-1.15,5.89-5.59,5.64-6.14-.35-12.33-.23-18.48,0-3.22.1-4.52-.92-4.38-4.25.2-5.09,0-10.2,0-15.3Zm-33.41-56.67c-13.87-.05-24.51,3-32.31,8.82-16.92,12.6-15.22,33.15,3.53,42.81,25.51,13.13,62.19-8.44,63.46-37.19.16-3.53-1.65-5.15-4.17-6.64C2772.76,168.21,2761.75,166.78,2752.18,166.27Z"/><path class="cls-7" d="M2836.59,89c4.18.35,10.22-1.9,14.22.83s4.59,9,6.58,13.71q18.8,44.93,37.47,89.9c.58,1.4.48,3.82,2.7,3.63,1.68-.15,1.57-2.33,2.09-3.62Q2920.07,143.26,2940.3,93c1.18-3,2.63-4.16,5.82-4.07,7.33.19,14.66,0,22,.06,5.67,0,5.91.3,3.65,5.49-8.44,19.39-17,38.74-25.42,58.11q-33.06,75.76-66,151.57c-1.23,2.83-2.6,4.24-5.83,4.16-7.33-.19-14.67-.17-22,0-3.71.08-4.23-1-2.67-4.31,10.32-22,20.42-44.12,30.8-66.1a10.53,10.53,0,0,0,.09-9.79q-27-60.68-53.76-121.49c-2-4.41-3.66-9-5.87-13.23-2-3.89-.51-4.58,3.07-4.43C2828,89.12,2831.81,89,2836.59,89Z"/><path class="cls-8" d="M2203.79,71.9c3.2-9.61,9.17-17.62,15.63-25.09,29.8-34.47,67.72-50,113-46.25,26.34,2.19,49.77,12.37,70,29.73,3.22,2.77,3.4,4.46.29,7.45Q2387.6,52.31,2373,67.35c-2.69,2.76-4.55,3.3-7.8.59-38.28-31.95-98.45-15.23-117,33.48a25.2,25.2,0,0,1-1.67,3Z"/><path class="cls-9" d="M2403.24,228.67l-4.37,3.72c-.65-.09-.9.18-.74.82l-1.53.95c-.69.09-1.51,0-1.47,1.09-10.88,8.88-23.56,14.33-36.85,18.07a136.87,136.87,0,0,1-64.12,2.72,128.59,128.59,0,0,1-60.48-29.72,132.39,132.39,0,0,1-27.79-34.23,10.68,10.68,0,0,1-1.86-4.56c10.24-8,20.4-16.19,30.76-24.08,3.87-2.95,7.2-6.65,11.78-8.64,3.38,5.69,5.57,12,9.3,17.54,25.24,37.66,71.4,42.79,104.15,24.34a20.67,20.67,0,0,1,2.28-.95c6.34,4.88,12.71,9.74,19,14.68,3.51,2.76,7.5,5.43,10.95,8.21C2396,221.67,2401.68,223.12,2403.24,228.67Z"/><path class="cls-10" d="M2403.24,228.67c-1.56-5.55-7.22-7-11-10-3.45-2.78-7.44-5.45-10.95-8.21-6.29-4.94-12.66-9.8-19-14.68,5.09-4.45,10.62-8.42,14.82-13.84a61.5,61.5,0,0,0,10.36-20.34c1.63-5.45,1.48-5.73-4.09-5.74q-24.24,0-48.49,0c-3.34,0-6.69-.24-10,.05-4.47.4-6.18-1-6.06-5.83.33-12.66.3-25.33,0-38-.11-4.73,1.22-6.37,6.14-6.32,21,.25,42,.12,63,.12,16.17,0,32.34.12,48.5-.09,4.23,0,5.65,1.24,6.13,5.55,2.46,21.92,1.45,43.48-5.19,64.63-6.26,19.93-16.74,37.23-32.15,51.44A14,14,0,0,1,2403.24,228.67Z"/><path class="cls-11" d="M344.65,201.68c0,10.42,0,20.22,0,30,0,5.54-1.56,7.11-7.07,7.2-3.82.06-7.65,0-11.48,0-4.39,0-6.9-1.89-6.89-6.55q0-55.92,0-111.84c0-3.25.84-6.26,4.05-7.33,16.44-5.44,33.17-8.85,50.26-3.45,17.67,5.59,27,18,27.62,36.59.25,7.3,0,14.63-.15,21.95-.43,20.48-17.81,35.72-38.86,36.23A45.9,45.9,0,0,1,344.65,201.68Zm1-46.61c0,7,0,14,0,21,0,1.43-.34,3,1.52,3.81a22.35,22.35,0,0,0,20.12-.4c5.73-2.89,8.44-7.81,8.57-14.12.11-5.32.15-10.65,0-16-.46-15.41-10.67-23.19-25.75-19.88-3.22.71-4.77,1.94-4.57,5.64C345.88,141.75,345.63,148.42,345.63,155.07Z"/><path class="cls-11" d="M787.84,176.43c0-18.31,0-36.62,0-54.93,0-4.2,1-7.45,5.5-8.88,13.91-4.45,28-7,42.63-4.53,19.63,3.26,34,17.81,33.82,39.17-.08,9.26,1.2,18.61-1.09,27.78-4.34,17.39-18.87,29-36.83,29.45-4.65.12-9.44.43-13.78-1.43-4.62-2-4.63.32-4.56,3.79.15,8,.06,16,0,24,0,6.35-1.63,8-7.82,8.09-3.5,0-7,0-10.49,0-5.6-.07-7.37-1.83-7.38-7.55Q787.8,203.9,787.84,176.43ZM814,154.9c0,6.82,0,13.63,0,20.45,0,1.61-.37,3.3,1.54,4.36,8.37,4.64,24.88,2.52,28.1-9.74,1.94-7.37,1.39-14.91.73-22.25-.64-7-2.51-14.12-10.5-17.18-5.18-2-10.36-1.73-15.65-.89-3.12.5-4.45,1.92-4.31,5.31C814.22,141.6,814,148.25,814,154.9Z"/><path class="cls-12" d="M415,172.32q0-29.22,0-58.43c0-6.29.91-6.91,7.25-7.26,16.11-.91,19,3.76,18.38,18.3-.22,5,.1,10-.09,15-.12,3,.4,4.05,3.81,3.26,7.59-1.77,15.24-2.89,23.11-1.08,14.88,3.42,25.45,16.14,25.8,32.61.41,19.3.15,38.62.25,57.93,0,4.21-2.14,6.07-6.06,6.26-2.32.12-4.66.1-7,0-7.67-.3-12.31-5.06-12.33-12.7,0-14.32,0-28.64,0-42.95,0-1.67,0-3.34-.1-5-.86-10.35-5.4-14.46-15.77-14.37-11.25.09-11.66.5-11.66,11.56q0,27.72,0,55.43c0,6.4-1.59,8-7.89,8-3.33,0-6.66,0-10,0-6.13,0-7.69-1.58-7.7-7.65Q414.92,201.79,415,172.32Z"/><path class="cls-11" d="M588.58,192.14c-.53,5.75.66,12.72-.75,19.69-3.07,15.15-12.33,24.85-27.62,27.73-10.24,1.93-20.49,1.95-30.46-1.82-13.23-5-21.17-14.55-22.17-28.57a254.29,254.29,0,0,1,0-36.41c1.15-15.95,11.69-26.62,27.35-30.06,12.07-2.65,23.76-2,35,3.21,12.47,5.82,17.71,16.45,18.63,29.56C588.88,180.6,588.58,185.78,588.58,192.14Zm-25.87-.79h-.07c0-5.8.43-11.65-.11-17.41-.63-6.57-6-10.61-13.32-11s-13.42,3.24-14.38,9.6a123.51,123.51,0,0,0-.07,36.17c.9,6.28,7.08,10,14.3,9.71,7.68-.3,13-4.36,13.56-11.17C563.08,202,562.71,196.66,562.71,191.35Z"/><path class="cls-11" d="M929.67,198.82c-6.49,0-13,.19-19.49-.08-3.1-.13-4,1.14-4.41,3.88-1.5,11,5.13,17.81,16.4,17a47.54,47.54,0,0,0,19-5.48c2.86-1.51,4.54-.7,6.4,1.38,6.87,7.71,5.57,15.6-3.91,19.49-16.74,6.87-33.62,8-49.77-1.73-8.67-5.21-13.28-13.56-14.13-23.45a200.14,200.14,0,0,1,.06-38.93c1.93-17.57,13-27.16,31-29.9a47.17,47.17,0,0,1,19.27.85c17,4.51,25.75,15.3,26.3,32.89.18,5.83-.08,11.67.06,17.5.12,4.76-2.33,6.6-6.74,6.6Zm-10.38-15.69h4.48c9.66,0,10.55-1,8.84-10.65-.91-5.13-3.76-8.88-8.89-10.27-5.62-1.53-10.91-.7-15.14,3.65-2.42,2.49-4.64,14.08-2.66,16.12,2.49,2.57,6.23.72,9.39,1.12A31.07,31.07,0,0,0,919.29,183.13Z"/><path class="cls-11" d="M745.71,198.82c-6.66,0-13.33.17-20-.08-3.09-.11-3.87,1-4.2,3.91-1.28,11.19,5.13,17.8,16.4,17a46.53,46.53,0,0,0,19-5.52c2.94-1.61,4.62-.55,6.4,1.44,6.91,7.71,5.55,15.29-3.95,19.45-14.43,6.32-29.36,7.37-44.06,1.36-13.82-5.66-20-16.9-20.08-31.57,0-11.32-.25-22.67.47-34,.77-12.05,7-21.15,18.11-26.09,13.18-5.88,26.86-6.17,40.08-.18,12.35,5.59,17.47,16.22,17.92,29.32.21,6.15-.15,12.33.1,18.48.19,4.94-2.33,6.5-6.69,6.48C758.71,198.8,752.21,198.82,745.71,198.82Zm-10.53-15.7c3.5,0,7,0,10.5,0,1.07,0,2.27.31,2.94-1.15,3.37-7.38-2.9-18.81-11.11-20.14-5.09-.82-9.74.19-13.19,4.14-4,4.57-3.05,10.3-2.84,15.75.07,1.68,1.61,1.38,2.71,1.39C727.85,183.15,731.52,183.12,735.18,183.12Z"/><path class="cls-11" d="M603.7,192.92c0-12.67.1-25.33-.06-38-.06-4.77,1.94-7,6.49-8.55a97.64,97.64,0,0,1,28.31-5.14c15.24-.39,29.71,2.34,38.42,17.09,4,6.75,5.28,14.27,5.31,22q.09,25.5,0,51c0,5.76-1.72,7.47-7.35,7.58-1.67,0-3.34,0-5,0-9-.13-13.18-4.23-13.22-13.18q-.09-23.23,0-46.48c0-13.57-8.21-17.3-19.1-16.08-8.55,1-8.51,1.23-8.52,9.91q0,29,0,58c0,5.6-1.15,6.77-6.65,6.85-4,.05-8-.07-12,0-4.55.11-6.7-1.78-6.65-6.54C603.79,218.58,603.7,205.75,603.7,192.92Z"/><path class="cls-13" d="M2246.57,154.81c-4.58,2-7.91,5.69-11.78,8.64-10.36,7.89-20.52,16-30.76,24.08-5.92-9.09-8.69-19.38-11.31-29.72-4-16.06-3.91-32.39-1.62-48.53C2193,96.2,2196,83.16,2203.79,71.9l42.69,32.51c.63,3.16-1.48,5.68-2,8.59-2.46,13-2.24,25.71,1.79,38.34A15.84,15.84,0,0,1,2246.57,154.81Z"/><path class="cls-10" d="M2395.13,235.25c0-1.07.78-1,1.47-1.09C2396.6,235.18,2396.05,235.46,2395.13,235.25Z"/><path class="cls-10" d="M2398.13,233.21c-.16-.64.09-.91.74-.82C2399.09,233.1,2398.87,233.39,2398.13,233.21Z"/><path class="cls-11" d="M142.29,131.76q.11,23.67.23,47.35c0,1.6-.15,3-2,3.56-5.59,1.58-11.21,3.25-17.08,1.89-8.66-2-12.72-6.7-12.89-15.82-.23-12.29,0-24.59.11-36.89Z"/><path class="cls-6" d="M142.29,131.76l-31.59.09c.62-1.51,2-.95,3-.95,8.65-.05,17.31,0,26,0C140.62,130.89,141.73,130.55,142.29,131.76Z"/></g></g></svg>