<svg version="1.1" id="Layer_1" xmlns="http://www.w3.org/2000/svg" xmlns:xlink="http://www.w3.org/1999/xlink" x="0px" y="0px" viewBox="5 -15 143 143" style="enable-background:new 5 -15 143 143;" xml:space="preserve">
 <style type="text/css">
  .st0{fill:#F37160;}
	.st1{fill:#007B78;}
	.st2{fill:#00B7CE;}
 </style>
 <title>
  Asset 3BharatPe
 </title>
 <g id="Layer_2">
  <g id="Layer_1-2">
   <polygon class="st0" points="109,40.5 44,57.9 44,41.6 109,24.2 		">
   </polygon>
   <polygon class="st1" points="109,71.3 44,88.8 44,72.5 109,55.1 		">
   </polygon>
   <path class="st2" d="M76.5,128C37,128,5,96,5,56.5S37-15,76.5-15S148,17,148,56.5c0,0,0,0,0,0C148,95.9,116,127.9,76.5,128z
			 M76.5-0.4c-31.4,0-56.9,25.5-56.9,56.9s25.5,56.9,56.9,56.9c31.4,0,56.9-25.5,56.9-56.9c0,0,0,0,0,0
			C133.3,25.1,107.9-0.4,76.5-0.4z">
   </path>
  </g>
 </g>
</svg>