<?xml version="1.0" encoding="UTF-8"?>
<svg version="1.1" xmlns="http://www.w3.org/2000/svg" width="240" height="240">
<path d="M0 0 C79.2 0 158.4 0 240 0 C240 79.2 240 158.4 240 240 C160.8 240 81.6 240 0 240 C0 160.8 0 81.6 0 0 Z " fill="#205577" transform="translate(0,0)"/>
<path d="M0 0 C17.83595717 14.96191668 31.61468812 34.43980537 33.9375 58.25 C35.60212331 86.90569375 28.90007095 110.10061677 9.6953125 131.78125 C-4.6974222 147.07058129 -25.40169962 157.26554757 -46.45507812 158.3762207 C-72.9361854 159.15609624 -94.96469516 153.10935831 -114.69140625 134.58203125 C-115.47386719 133.81246094 -116.25632812 133.04289063 -117.0625 132.25 C-117.83464844 131.49074219 -118.60679688 130.73148438 -119.40234375 129.94921875 C-136.5363278 112.05372429 -142.70867099 89.29672065 -142.24609375 65.05859375 C-141.89497181 53.90774613 -139.54189421 44.46249643 -135.0625 34.25 C-134.69253906 33.38632813 -134.32257813 32.52265625 -133.94140625 31.6328125 C-124.60268316 11.40429813 -106.39686485 -5.06986734 -85.6027832 -12.90209961 C-56.80660883 -23.0555777 -24.34028224 -18.82214372 0 0 Z " fill="#FDFDFD" transform="translate(174.0625,49.75)"/>
<path d="M0 0 C7.3454985 -0.06786243 14.69082477 -0.12286574 22.03657055 -0.15543652 C25.44775761 -0.17107139 28.85871849 -0.19226914 32.26977539 -0.22631836 C36.19414534 -0.26524491 40.11842471 -0.2797273 44.04296875 -0.29296875 C45.26396774 -0.30845261 46.48496674 -0.32393646 47.7429657 -0.33988953 C49.45417351 -0.34022942 49.45417351 -0.34022942 51.19995117 -0.34057617 C52.20144699 -0.34723801 53.20294281 -0.35389984 54.23478699 -0.36076355 C58.52048761 0.19837043 61.14436956 2.23687015 64.3125 5.0625 C69.10003154 13.39635119 64.68823188 25.76342702 62.80175781 34.64794922 C62.25469018 37.22788142 61.72378316 39.81073289 61.1953125 42.39453125 C59.63578445 49.93943165 57.9805439 57.46343781 56.046875 64.921875 C55.77198242 65.9850293 55.49708984 67.04818359 55.21386719 68.14355469 C53.72649058 71.6436163 51.89626018 73.56214071 49 76 C45.6875 76.8125 45.6875 76.8125 43 77 C43.45052734 78.57201172 43.45052734 78.57201172 43.91015625 80.17578125 C44.29471465 81.55456379 44.67880489 82.93347697 45.0625 84.3125 C45.26166016 85.00279297 45.46082031 85.69308594 45.66601562 86.40429688 C47.11328125 91.66015625 47.11328125 91.66015625 46 95 C45.64245132 94.49320206 45.28490265 93.98640411 44.91651917 93.46424866 C38.85283589 85.28884831 32.63768426 78.07145677 22.15966797 76.50341797 C15.0834086 75.95482951 8.03256357 76.08848884 0.94610596 76.36914062 C-2.43951158 76.48436417 -5.82561893 76.50014612 -9.21289062 76.52539062 C-15.81262204 76.59408884 -22.40444684 76.7585129 -29 77 C-28.39083731 71.0606638 -26.65098906 67.96472537 -24 62 C-1.89 61.67 20.22 61.34 43 61 C49.86215797 38.8779472 49.86215797 38.8779472 52 16 C50.29478107 14.29478107 48.07898913 14.83121459 45.74584961 14.79467773 C44.62476303 14.77473251 43.50367645 14.75478729 42.34861755 14.73423767 C41.1288472 14.71752518 39.90907684 14.70081268 38.65234375 14.68359375 C37.41078018 14.66281265 36.16921661 14.64203156 34.89002991 14.62062073 C31.58400877 14.56616391 28.27797755 14.51595795 24.97186279 14.46777344 C21.60032509 14.41760144 18.22887947 14.36189299 14.85742188 14.30664062 C8.23835214 14.19929958 1.61921334 14.09806943 -5 14 C-3.35 9.38 -1.7 4.76 0 0 Z " fill="#1E5376" transform="translate(101,78)"/>
<path d="M0 0 C1.31983695 3.95951084 0.03971894 6.40007512 -1.375 10.125 C-1.60960937 10.77082031 -1.84421875 11.41664062 -2.0859375 12.08203125 C-3.84237438 16.84237438 -3.84237438 16.84237438 -5 18 C-7.81330441 18.23251555 -10.60717126 18.40445833 -13.42578125 18.53515625 C-14.28374802 18.57813339 -15.14171478 18.62111053 -16.02568054 18.66539001 C-17.85237749 18.75583489 -19.6791914 18.84394235 -21.50610352 18.92993164 C-24.26284936 19.06015461 -27.01910108 19.19837871 -29.77539062 19.33789062 C-38.85490177 19.78603627 -47.90627492 20.1579381 -57 20 C-55.14699877 13.38956982 -52.91827885 7.21505787 -50 1 C-41.52868968 -0.00463781 -33.08661973 -0.32112296 -24.56665039 -0.55761719 C-22.1750351 -0.62535303 -19.78387142 -0.70304726 -17.39257812 -0.78125 C-15.8593925 -0.82612275 -14.32618973 -0.87041436 -12.79296875 -0.9140625 C-12.08456345 -0.93796051 -11.37615814 -0.96185852 -10.64628601 -0.98648071 C-6.94552523 -1.0799237 -3.59577057 -0.90275865 0 0 Z " fill="#1F5477" transform="translate(140,106)"/>
</svg>
